<svg xmlns="http://www.w3.org/2000/svg" xmlns:xlink="http://www.w3.org/1999/xlink" xmlns:inkscape="http://www.inkscape.org/namespaces/inkscape" version="1.1" width="163.998" height="188.666" viewBox="0 0 163.998 188.666">
<defs>
<clipPath id="clip_1">
<path transform="matrix(1,0,0,-1,0,188.666)" d="M0 188.666H163.998V0H0Z"/>
</clipPath>
</defs>
<g inkscape:groupmode="layer" inkscape:label="Layer 1">
<g clip-path="url(#clip_1)">
<path transform="matrix(1,0,0,-1,163.998,174.6914)" d="M0 0C0-7.719-6.346-13.975-14.172-13.975H-149.826C-157.652-13.975-163.998-7.719-163.998 0V160.717C-163.998 168.435-157.652 174.691-149.826 174.691H-14.172C-6.346 174.691 0 168.435 0 160.717Z" fill="#1d3a68"/>
<path transform="matrix(1,0,0,-1,26.8926,181.8369)" d="M0 0 1.841 6.603H2.77 3.697L2.184 1.177H6.608L6.434 .589 6.258 0Z" fill="#f9fafb"/>
<path transform="matrix(1,0,0,-1,35.6738,175.1806)" d="M0 0H1.757L1.43-1.177H-.327ZM-.552-1.77H.314 1.188L-.176-6.656H-1.042-1.914Z" fill="#f9fafb"/>
<path transform="matrix(1,0,0,-1,40.585,177.9385)" d="M0 0C-.432 0-.816-.13-1.154-.391-1.491-.651-1.719-.995-1.836-1.424-1.863-1.517-1.884-1.608-1.896-1.7-1.908-1.791-1.916-1.874-1.92-1.949-1.92-2.239-1.823-2.465-1.63-2.625-1.436-2.785-1.161-2.865-.806-2.865-.369-2.865 .017-2.739 .352-2.488 .687-2.236 .911-1.904 1.023-1.491 1.157-1.015 1.135-.647 .957-.389 .779-.129 .461 0 0 0M-1.368-4.927C-.88-4.927-.491-4.834-.203-4.648 .086-4.463 .282-4.176 .388-3.786L.573-3.099C.489-3.191 .398-3.275 .301-3.351-.188-3.733-.791-3.926-1.51-3.926-2.22-3.926-2.776-3.772-3.178-3.465-3.579-3.158-3.782-2.733-3.786-2.191-3.786-2.075-3.775-1.944-3.753-1.801-3.73-1.657-3.699-1.515-3.659-1.374-3.461-.658-3.029-.064-2.363 .409-1.697 .882-.96 1.118-.152 1.118 .59 1.118 1.109 .913 1.403 .503 1.469 .416 1.522 .317 1.567 .207L1.785 .988H3.423L2.126-3.643C1.916-4.409 1.497-4.978 .869-5.347 .241-5.717-.617-5.901-1.707-5.901-2.632-5.901-3.326-5.775-3.791-5.522-4.255-5.269-4.451-4.907-4.378-4.438H-2.488C-2.488-4.617-2.404-4.743-2.236-4.817-2.069-4.891-1.78-4.927-1.368-4.927" fill="#f9fafb"/>
<path transform="matrix(1,0,0,-1,47.6563,180.0586)" d="M0 0 .163 .593C-.002 .524-.184 .474-.382 .44L-1.085 .337C-1.545 .269-1.875 .182-2.075 .076-2.274-.028-2.403-.181-2.46-.382-2.468-.411-2.468-.411-2.46-.382-2.468-.411-2.474-.441-2.478-.472-2.481-.501-2.483-.529-2.483-.557-2.483-.694-2.424-.801-2.305-.876-2.186-.95-2.02-.988-1.806-.988-1.256-.988-.77-.826-.345-.503-.272-.449-.204-.374-.139-.278-.07-.18-.023-.087 0 0M-2.545-1.908C-3.086-1.908-3.511-1.813-3.819-1.623-4.128-1.434-4.282-1.169-4.282-.831-4.282-.776-4.277-.716-4.268-.646-4.257-.577-4.242-.51-4.222-.444-4.108-.037-3.838 .304-3.41 .58-2.981 .855-2.457 1.024-1.835 1.087L-.369 1.24C-.231 1.255-.103 1.28 .019 1.316 .172 1.361 .289 1.427 .37 1.512 .451 1.597 .489 1.696 .485 1.811 .481 1.93 .427 2.021 .321 2.084 .172 2.171-.099 2.215-.49 2.215-.789 2.215-1.043 2.157-1.253 2.042-1.464 1.927-1.627 1.755-1.744 1.527H-3.386C-3.216 2.087-2.845 2.513-2.271 2.803-1.697 3.094-.944 3.238-.012 3.238 .841 3.238 1.456 3.116 1.836 2.87 2.119 2.69 2.258 2.447 2.254 2.142 2.258 2.037 2.242 1.925 2.206 1.805L1.461-.861C1.4-1.077 1.382-1.243 1.406-1.358 1.431-1.474 1.501-1.554 1.618-1.599V-1.604L1.569-1.778H.629-.312V-1.773C-.34-1.582-.336-1.392-.3-1.203-.981-1.674-1.73-1.908-2.545-1.908" fill="#f9fafb"/>
<path transform="matrix(1,0,0,-1,54.5674,178.414)" d="M0 0C0 .228-.073 .388-.219 .482-.364 .577-.615 .624-.972 .624-1.298 .624-1.562 .587-1.763 .512-1.964 .437-2.082 .333-2.116 .202-2.148 .088-2.08-.01-1.91-.09-1.743-.168-1.435-.247-.983-.328 .012-.508 .668-.709 .986-.93 1.232-1.095 1.355-1.313 1.355-1.586 1.355-1.685 1.34-1.791 1.308-1.904 1.166-2.411 .792-2.812 .184-3.108-.424-3.405-1.178-3.553-2.077-3.553-3.079-3.553-3.806-3.412-4.258-3.131-4.625-2.9-4.811-2.575-4.814-2.156L-4.784-1.859H-3.009C-3.05-2.105-2.964-2.287-2.753-2.405-2.542-2.523-2.193-2.583-1.708-2.583-1.39-2.583-1.128-2.539-.923-2.45-.719-2.362-.594-2.24-.55-2.084-.518-1.965-.591-1.864-.769-1.783-.948-1.702-1.285-1.619-1.776-1.532-2.745-1.364-3.383-1.173-3.691-.957-3.917-.799-4.029-.589-4.029-.328-4.029-.227-4.014-.119-3.981-.005-3.844 .486-3.496 .875-2.937 1.163-2.377 1.45-1.689 1.594-.874 1.594 .071 1.594 .76 1.459 1.191 1.189 1.535 .978 1.706 .683 1.706 .305 1.706 .212 1.694 .11 1.672 0Z" fill="#f9fafb"/>
<path transform="matrix(1,0,0,-1,61.998,177.8125)" d="M0 0H2.185C2.616 0 2.952 .058 3.192 .173 3.433 .288 3.587 .466 3.655 .705 3.663 .744 3.671 .78 3.677 .815 3.683 .85 3.686 .887 3.686 .925 3.686 1.099 3.599 1.226 3.426 1.305 3.252 1.384 2.976 1.424 2.596 1.424H.397ZM-.8-2.87H1.337C1.854-2.87 2.255-2.8 2.541-2.659 2.828-2.519 3.012-2.301 3.092-2.008 3.108-1.957 3.12-1.91 3.129-1.868 3.137-1.826 3.139-1.788 3.135-1.752 3.135-1.542 3.037-1.386 2.844-1.282 2.649-1.179 2.356-1.127 1.965-1.127H-.32ZM-1.137 2.578H-.209 3.243C3.982 2.578 4.548 2.464 4.939 2.236 5.331 2.009 5.529 1.682 5.533 1.253 5.529 1.175 5.521 1.092 5.509 1.004 5.497 .915 5.479 .826 5.455 .736 5.329 .29 4.958-.069 4.34-.342 4.243-.387 4.14-.427 4.031-.463 4.156-.499 4.27-.544 4.37-.598 4.818-.828 5.043-1.16 5.043-1.595 5.043-1.663 5.037-1.736 5.024-1.813 5.013-1.889 4.996-1.965 4.977-2.039 4.803-2.662 4.373-3.148 3.688-3.499 3.004-3.85 2.141-4.024 1.099-4.024H-2.051-2.978Z" fill="#f9fafb"/>
<path transform="matrix(1,0,0,-1,68.5713,176.9502)" d="M0 0H.826 1.658L1.375-.992C1.48-.87 1.596-.75 1.721-.633 2.266-.124 2.851 .13 3.477 .13L3.896 .126 3.587-.97C3.441-.958 3.268-.952 3.066-.952 2.546-.952 2.118-1.069 1.781-1.305 1.444-1.54 1.214-1.882 1.089-2.331L.376-4.887H-.49-1.362Z" fill="#f9fafb"/>
<path transform="matrix(1,0,0,-1,75.5889,180.0586)" d="M0 0 .163 .593C-.002 .524-.184 .474-.382 .44L-1.085 .337C-1.545 .269-1.875 .182-2.075 .076-2.274-.028-2.403-.181-2.46-.382-2.468-.411-2.468-.411-2.46-.382-2.468-.411-2.474-.441-2.478-.472-2.481-.501-2.483-.529-2.483-.557-2.483-.694-2.424-.801-2.305-.876-2.186-.95-2.02-.988-1.806-.988-1.256-.988-.77-.826-.345-.503-.272-.449-.204-.374-.139-.278-.07-.18-.023-.087 0 0M-2.545-1.908C-3.086-1.908-3.511-1.813-3.819-1.623-4.128-1.434-4.282-1.169-4.282-.831-4.282-.776-4.277-.716-4.268-.646-4.257-.577-4.242-.51-4.222-.444-4.108-.037-3.838 .304-3.41 .58-2.981 .855-2.457 1.024-1.835 1.087L-.369 1.24C-.231 1.255-.103 1.28 .019 1.316 .172 1.361 .289 1.427 .37 1.512 .451 1.597 .489 1.696 .485 1.811 .481 1.93 .427 2.021 .321 2.084 .172 2.171-.099 2.215-.49 2.215-.789 2.215-1.043 2.157-1.253 2.042-1.464 1.927-1.627 1.755-1.744 1.527H-3.386C-3.216 2.087-2.845 2.513-2.271 2.803-1.697 3.094-.944 3.238-.012 3.238 .841 3.238 1.456 3.116 1.836 2.87 2.119 2.69 2.258 2.447 2.254 2.142 2.258 2.037 2.242 1.925 2.206 1.805L1.461-.861C1.4-1.077 1.382-1.243 1.406-1.358 1.431-1.474 1.501-1.554 1.618-1.599V-1.604L1.569-1.778H.629-.312V-1.773C-.34-1.582-.336-1.392-.3-1.203-.981-1.674-1.73-1.908-2.545-1.908" fill="#f9fafb"/>
<path transform="matrix(1,0,0,-1,82.5,178.414)" d="M0 0C0 .228-.073 .388-.219 .482-.364 .577-.615 .624-.972 .624-1.298 .624-1.562 .587-1.763 .512-1.964 .437-2.082 .333-2.116 .202-2.148 .088-2.08-.01-1.91-.09-1.743-.168-1.435-.247-.983-.328 .012-.508 .668-.709 .986-.93 1.232-1.095 1.355-1.313 1.355-1.586 1.355-1.685 1.34-1.791 1.308-1.904 1.166-2.411 .792-2.812 .184-3.108-.424-3.405-1.178-3.553-2.077-3.553-3.079-3.553-3.806-3.412-4.258-3.131-4.625-2.9-4.811-2.575-4.814-2.156L-4.784-1.859H-3.009C-3.05-2.105-2.964-2.287-2.753-2.405-2.542-2.523-2.193-2.583-1.708-2.583-1.39-2.583-1.128-2.539-.923-2.45-.719-2.362-.594-2.24-.55-2.084-.518-1.965-.591-1.864-.769-1.783-.948-1.702-1.285-1.619-1.776-1.532-2.745-1.364-3.383-1.173-3.691-.957-3.917-.799-4.029-.589-4.029-.328-4.029-.227-4.014-.119-3.981-.005-3.844 .486-3.496 .875-2.937 1.163-2.377 1.45-1.689 1.594-.874 1.594 .071 1.594 .76 1.459 1.191 1.189 1.535 .978 1.706 .683 1.706 .305 1.706 .212 1.694 .11 1.672 0Z" fill="#f9fafb"/>
<path transform="matrix(1,0,0,-1,85.9492,175.1806)" d="M0 0H1.757L1.43-1.177H-.327ZM-.552-1.77H.314 1.188L-.176-6.656H-1.042-1.914Z" fill="#f9fafb"/>
<path transform="matrix(1,0,0,-1,88.7031,175.2344)" d="M0 0H.866 1.739L-.103-6.603H-.969-1.841Z" fill="#f9fafb"/>
<path transform="matrix(1,0,0,-1,96.4658,177.9336)" d="M0 0C-.444 0-.84-.136-1.187-.406-1.533-.678-1.77-1.035-1.895-1.478-1.923-1.577-1.943-1.674-1.958-1.77-1.972-1.866-1.979-1.951-1.979-2.026-1.979-2.328-1.879-2.562-1.68-2.727-1.479-2.892-1.198-2.974-.835-2.974-.388-2.974 .01-2.843 .356-2.581 .703-2.318 .936-1.974 1.053-1.545 1.189-1.051 1.167-.67 .986-.402 .805-.134 .476 0 0 0M-1.653-4.033C-2.32-4.033-2.843-3.876-3.22-3.56-3.598-3.244-3.787-2.806-3.787-2.246-3.787-2.111-3.773-1.959-3.748-1.79-3.722-1.621-3.687-1.454-3.642-1.289-3.448-.601-3.034-.028-2.4 .429-1.767 .886-1.066 1.113-.299 1.113 .541 1.113 1.13 .879 1.469 .408L1.499 .368 2.155 2.699H3.022 3.895L2.053-3.903H1.187 .314L.469-3.351C-.17-3.806-.877-4.033-1.653-4.033" fill="#f9fafb"/>
<path transform="matrix(1,0,0,-1,104.2373,178.8818)" d="M0 0 .006 .171C.006 .452-.084 .661-.264 .798-.443 .934-.717 1.002-1.083 1.002-1.547 1.002-1.932 .868-2.238 .603-2.416 .446-2.567 .246-2.692 0ZM-2.087-3.085C-2.946-3.085-3.606-2.935-4.064-2.634-4.522-2.333-4.752-1.899-4.752-1.334-4.748-1.214-4.735-1.085-4.716-.947-4.695-.81-4.667-.671-4.631-.529-4.404 .281-3.951 .917-3.271 1.375-2.59 1.833-1.76 2.062-.778 2.062 .05 2.062 .676 1.912 1.1 1.612 1.524 1.313 1.736 .873 1.736 .292 1.736 .148 1.724-.006 1.699-.17 1.674-.335 1.635-.506 1.581-.683L1.534-.84H-2.977L-2.989-.902C-3.005-.992-3.014-1.078-3.014-1.158-3.01-1.455-2.906-1.678-2.705-1.825-2.504-1.974-2.199-2.048-1.792-2.048-1.498-2.048-1.23-2.001-.988-1.906-.747-1.812-.576-1.688-.475-1.536H1.288C.98-2.012 .523-2.389-.084-2.668-.692-2.946-1.359-3.085-2.087-3.085" fill="#f9fafb"/>
<path transform="matrix(1,0,0,-1,112.1904,176.4111)" d="M0 0H-2.727L-2.551 .588-2.375 1.177H4.891L4.738 .588 4.586 0H1.855L.341-5.426H-.587-1.515Z" fill="#f9fafb"/>
<path transform="matrix(1,0,0,-1,120.9707,174.9336)" d="M0 0 1.018-1.343H-.369L-.945-.593-1.938-1.343H-3.356L-1.539 0H-.77ZM-.67-3.948-.664-3.777C-.664-3.496-.754-3.287-.934-3.15-1.113-3.015-1.387-2.946-1.753-2.946-2.217-2.946-2.602-3.08-2.908-3.346-3.086-3.502-3.237-3.702-3.362-3.948ZM-2.757-7.033C-3.616-7.033-4.276-6.883-4.734-6.582-5.192-6.281-5.422-5.848-5.422-5.282-5.418-5.162-5.405-5.033-5.386-4.896-5.365-4.758-5.337-4.619-5.301-4.478-5.074-3.667-4.621-3.031-3.94-2.573-3.26-2.115-2.43-1.887-1.448-1.887-.62-1.887 .006-2.036 .43-2.336 .854-2.635 1.066-3.075 1.066-3.656 1.066-3.8 1.054-3.954 1.029-4.118 1.004-4.283 .965-4.454 .911-4.631L.864-4.788H-3.646L-3.659-4.851C-3.675-4.94-3.684-5.026-3.684-5.106-3.68-5.403-3.576-5.626-3.375-5.773-3.174-5.922-2.869-5.996-2.462-5.996-2.168-5.996-1.9-5.949-1.658-5.854-1.417-5.76-1.246-5.637-1.145-5.484H.618C.311-5.96-.146-6.337-.754-6.616-1.362-6.895-2.029-7.033-2.757-7.033" fill="#f9fafb"/>
<path transform="matrix(1,0,0,-1,123.1309,176.9502)" d="M0 0H.845 1.688L1.495-.7 1.737-.499C2.286-.079 2.952 .13 3.735 .13 4.445 .13 4.96-.019 5.279-.316 5.598-.614 5.683-1.027 5.533-1.554L4.604-4.887H3.738 2.867L3.71-1.868C3.794-1.557 3.77-1.326 3.637-1.177 3.503-1.027 3.254-.952 2.89-.952 2.444-.952 2.067-1.052 1.76-1.251 1.452-1.45 1.249-1.727 1.152-2.079L.375-4.887H-.491-1.363Z" fill="#f9fafb"/>
<path transform="matrix(1,0,0,-1,130.6885,175.1806)" d="M0 0H1.757L1.43-1.177H-.327ZM-.552-1.77H.314 1.188L-.176-6.656H-1.042-1.914Z" fill="#f9fafb"/>
<path transform="matrix(1,0,0,-1,136.3457,178.414)" d="M0 0C0 .228-.073 .388-.219 .482-.364 .577-.615 .624-.972 .624-1.298 .624-1.562 .587-1.763 .512-1.964 .437-2.082 .333-2.116 .202-2.148 .088-2.08-.01-1.91-.09-1.743-.168-1.435-.247-.983-.328 .012-.508 .668-.709 .986-.93 1.232-1.095 1.355-1.313 1.355-1.586 1.355-1.685 1.34-1.791 1.308-1.904 1.166-2.411 .792-2.812 .184-3.108-.424-3.405-1.178-3.553-2.077-3.553-3.079-3.553-3.806-3.412-4.258-3.131-4.625-2.9-4.811-2.575-4.814-2.156L-4.784-1.859H-3.009C-3.05-2.105-2.964-2.287-2.753-2.405-2.542-2.523-2.193-2.583-1.708-2.583-1.39-2.583-1.128-2.539-.923-2.45-.719-2.362-.594-2.24-.55-2.084-.518-1.965-.591-1.864-.769-1.783-.948-1.702-1.285-1.619-1.776-1.532-2.745-1.364-3.383-1.173-3.691-.957-3.917-.799-4.029-.589-4.029-.328-4.029-.227-4.014-.119-3.981-.005-3.844 .486-3.496 .875-2.937 1.163-2.377 1.45-1.689 1.594-.874 1.594 .071 1.594 .76 1.459 1.191 1.189 1.535 .978 1.706 .683 1.706 .305 1.706 .212 1.694 .11 1.672 0Z" fill="#f9fafb"/>
<path transform="matrix(1,0,0,-1,92.8682,121.3847)" d="M0 0C-.504-.1-.971-.236-1.371-.42-3.984-1.628-5.224-8.484-5.224-8.484L9.843-8.463C9.843-8.463 .762-39.151 .313-40.992-.132-42.831-.264-44.628 .72-45.483 1.844-46.469 5.188-46.488 7.576-46.476 8.176-46.474 10.36-46.459 10.36-46.459 10.36-46.459 10.828-44.7 11.016-44.087 14.44-32.838 21.465-8.484 21.465-8.484 21.467-8.484 31.297-8.506 31.297-8.506 31.297-8.506 31.759-8.492 31.889-8.484 32.996-8.405 34.02-8.21 34.59-7.894 36.61-6.777 38.009-2.96 39.064 .186L1.712 .189C1.712 .189 .39 .082 0 0" fill="#f9fafb" fill-rule="evenodd"/>
<path transform="matrix(1,0,0,-1,59.0166,160.3974)" d="M0 0C0 0 10.348 35.739 10.362 35.797 10.763 37.268 10.656 38.002 10.292 38.679 10.018 39.185 9.583 40.026 8.015 40.026 7.735 40.026 .194 40.007 .194 40.007-.525 37.608-12.66-2.804-12.871-4.413-13.41-8.5-10.72-8.513-6.53-8.489-6.381-8.489 19.967-8.479 19.967-8.479 19.967-8.479 21.872-2.897 21.372-1.639 20.896-.458 19.196-.103 17.231-.007 15.813 .056 0 0 0 0" fill="#f9fafb" fill-rule="evenodd"/>
<path transform="matrix(1,0,0,-1,134.1045,63.043)" d="M0 0C-3.527 .184-6.533-2.527-6.717-6.052-6.9-9.577-4.191-12.584-.668-12.768 2.857-12.952 5.865-10.242 6.049-6.717 6.232-3.191 3.523-.185 0 0" fill="#29aae1"/>
<path transform="matrix(1,0,0,-1,124.1318,95.1611)" d="M0 0C0 0 1.391 .876 2.213 1.466 3.033 2.056 4.586 3.079 4.855 3.698 5.125 4.316 5.848 6.018 5.123 5.819 4.404 5.618 .623 2.892-1.158 2.036-2.939 1.182-4.086 .45-4.086 .45-4.086 .45-5.594 .291-6.387 .253-8.246 .167-10.188 .47-12.041 .604-13.15 .685-14.293 .698-15.393 .854-16.262 .978-16.236 1.285-16.822 1.688-17.547 2.184-18.047 2.446-18.945 2.827-20.361 3.429-21.775 4.038-23.189 4.644-24.703 5.292-29.229 8.333-30.502 6.093L-36.131 10.259-33.812 11.974-36.95 15.27C-38.992 13.843-40.832 12.559-40.832 12.559-40.832 12.559-44.334 15.11-53.074 15.725-54.34 16.7-55.619 17.659-56.873 18.646-57.684 19.282-58.588 19.859-59.354 20.546-60.621 21.685-61.221 23.559-62.037 25.024-62.674 26.171-63.313 27.315-63.949 28.461-64.227 28.966-63.467 30.245-63.295 30.736-62.99 31.61-62.844 32.849-62.258 33.589-61.836 34.118-61.42 35.243-61.42 35.243-61.42 35.243-59.904 37.062-58.891 38.312-57.877 39.563-55.883 43.726-55.789 45.5-55.789 45.5-54.758 47.105-54.467 48.157-54.174 49.209-53.699 53.807-53.91 54.292-54.121 54.777-54.514 54.087-54.65 53.737-54.607 53.849-54.91 54.728-54.873 55.055-54.686 56.677-54.336 58.321-54.244 60.005-54.184 61.145-54.563 62.092-54.393 63.202-54.203 64.419-53.986 65.366-54.863 66.503-55.613 67.476-55.797 67.198-56.02 68.358-56.309 69.86-56.4 69.778-57.891 69.998-58.457 70.081-58.855 70.042-59.379 70.321-59.785 70.538-59.912 71.103-60.391 71.243-60.727 71.341-61.043 71.08-61.35 71.063-62.428 71.008-62.215 71.465-63.209 71.886-63.814 72.141-64.92 72.101-65.578 71.95-66.467 71.745-66.867 70.87-67.537 70.634-68.215 70.396-69.867 70.747-70.607 70.835-71.518 70.944-72.064 70.925-72.949 70.81-73.619 70.722-74.256 71.101-74.846 71.042-75.84 70.94-75.082 70.734-74.891 70.128-74.697 69.518-74.711 69.461-75.207 68.819-75.631 68.269-76.537 67.95-76.641 67.173-76.707 66.673-76.512 66.085-76.529 65.567-76.57 64.508-76.926 63.486-77.01 62.432-75.934 61.843-76.234 60.129-76.338 59.146-76.455 58.05-76.285 56.324-76.664 55.354-76.541 55.663-77.627 55.436-77.703 55.401-78.025 55.256-78.359 54.651-78.486 54.339-78.787 53.593-78.662 52.698-78.514 51.935-78.307 50.854-76.014 47.022-78.586 47.131-78.822 46.271-78.602 45.37-77.982 44.743-78.377 44.681-78.955 44.261-79.26 44.179-78.609 44.351-77.65 43.847-76.906 43.976-76.969 43.313-79.238 41.392-79.84 41.182-79.84 41.182-85.756 39.119-88.262 36.523-90.768 33.927-93.055 30.965-93.055 30.965-93.055 30.965-95.832 25.419-96.369 24.263-96.902 23.104-99.197 20.024-100.199 19.009-101.199 17.995-103.645 14.329-104.09 12.573-104.537 10.819-106.791 6.196-107.104 4.79-107.414 3.383-109.027-.326-109.121-2.102-109.391-7.271-108.795-12.858-109.852-17.938-110.461-20.864-110.898-23.599-111.965-27.234-106.143-24.788-98.975-21.505-93.285-19.263-90.873-18.313-75.313-15.845-74.637-14.811-71.668-10.267-67.016-2.382-65.842 2.759-62.801 2.819-59.746 2.872-56.707 2.901-55.408 2.915-54.707 2.067-53.633 1.544-50.162-.143-45.168-.33-41.395-1.124-38.695-1.692-35.994-2.269-33.297-2.849L-32.75-3.706C-30.77-4.12-28.791-4.54-26.809-4.952-25.451-5.234-24.094-5.515-22.734-5.795-20.873-6.179-19.65-6.149-17.859-6.853-17.162-7.127-9.574-7.048-9.574-7.048-9.574-7.048-7.369-7.992-6.447-8.515-5.527-9.036-1.637-9.477-1.383-9.134-1.129-8.792-1.229-8.431-2.273-8.021-2.787-7.819-7.113-5.507-6.742-5.062-6.363-4.607-5.275-4.189-4.088-4.134-2.896-4.077-1.959-4.244-1-4.057-.043-3.87 .313-3.889 1.623-3.72 2.938-3.55 4.125-3.494 4.387-3.032 4.596-2.667 4.746-2.257 4.941-1.899 4.844-2.077 6.385-1.838 6.527-1.757 7.016-1.481 7.404-.958 7.695-.493 7.193-.137 6.451-.099 5.848-.067 4.348 .011 0 0 0 0" fill="#29aae1"/>
<path transform="matrix(1,0,0,-1,148.5742,42.6474)" d="M0 0C-4.985-6.425-23.818-19.585-23.818-19.585-26.427-21.247-29.115-22.899-31.979-24.093-32.745-24.412-36.286-25.98-36.806-25.107-37.212-24.425-32.292-19.7-30.769-18.382-27.835-15.844-24.75-13.485-21.588-11.239-15.013-6.57-8.097-2.237-.938 1.495 1.185 2.131 0 0 0 0M-44.737-30.263-38.202-24.638C-40.187-27.06-37.571-26.846-37.571-26.846ZM1.173 3.887C-.284 5.415-3.634 3.952-3.634 3.952-12.06 1.466-28.601-12.435-28.601-12.435L-47.751-28.37C-47.751-28.37-54.765-34.007-55.022-33.989-55.281-33.972-56.326-34.031-56.326-34.031L-67.628-41.589-62.54-44.208-52.958-37.12-52.644-36.296C-51.874-35.503-44.907-31.487-43.033-30.704-41.16-29.921-29.138-24.231-29.138-24.231-12.458-15.021 .979-.911 .979-.911 3.519 2.038 1.173 3.887 1.173 3.887" fill="#29aae1"/>
<path transform="matrix(1,0,0,-1,148.5781,117.8877)" d="M0 0C0 0-60.179 34.831-139.481-5.777L-141.035-7.249C-61.397 26.39 2.748-.8 2.748-.8Z" fill="#f9fafb" fill-rule="evenodd"/>
</g>
</g>
</svg>
