<svg xmlns="http://www.w3.org/2000/svg" xmlns:xlink="http://www.w3.org/1999/xlink" xmlns:inkscape="http://www.inkscape.org/namespaces/inkscape" version="1.1" width="165.998" height="190.666" viewBox="0 0 165.998 190.666">
<defs>
<clipPath id="clip_1">
<path transform="matrix(1,0,0,-1,0,190.666)" d="M0 190.666H165.998V0H0Z"/>
</clipPath>
</defs>
<g inkscape:groupmode="layer" inkscape:label="Layer 1">
<g clip-path="url(#clip_1)">
<path transform="matrix(1,0,0,-1,164.998,175.6914)" d="M0 0C0-7.719-6.346-13.975-14.172-13.975H-149.826C-157.652-13.975-163.998-7.719-163.998 0V160.717C-163.998 168.435-157.652 174.691-149.826 174.691H-14.172C-6.346 174.691 0 168.435 0 160.717Z" fill="#ffffff"/>
<path transform="matrix(1,0,0,-1,15.1719,2)" d="M0 0C-7.263 0-13.172-5.82-13.172-12.975V-173.691C-13.172-180.846-7.263-186.666 0-186.666H135.654C142.917-186.666 148.826-180.846 148.826-173.691V-12.975C148.826-5.82 142.917 0 135.654 0ZM135.654-188.666H0C-8.366-188.666-15.172-181.948-15.172-173.691V-12.975C-15.172-4.718-8.366 2 0 2H135.654C144.021 2 150.826-4.718 150.826-12.975V-173.691C150.826-181.948 144.021-188.666 135.654-188.666" fill="#bbbdbf"/>
<path transform="matrix(1,0,0,-1,44.6875,182.8369)" d="M0 0 1.84 6.603H2.77 3.697L2.184 1.177H6.607L6.434 .589 6.258 0Z" fill="#1f2e60"/>
<path transform="matrix(1,0,0,-1,53.4688,176.1806)" d="M0 0H1.756L1.43-1.177H-.328ZM-.553-1.77H.314 1.188L-.176-6.656H-1.043-1.914Z" fill="#1f2e60"/>
<path transform="matrix(1,0,0,-1,58.3789,178.9385)" d="M0 0C-.432 0-.816-.13-1.154-.391-1.49-.651-1.719-.995-1.836-1.424-1.863-1.517-1.883-1.608-1.896-1.7-1.908-1.791-1.916-1.874-1.92-1.949-1.92-2.239-1.822-2.465-1.629-2.625-1.436-2.785-1.16-2.865-.805-2.865-.369-2.865 .018-2.739 .352-2.488 .688-2.236 .912-1.904 1.023-1.491 1.158-1.015 1.135-.647 .957-.389 .779-.129 .461 0 0 0M-1.367-4.927C-.879-4.927-.49-4.834-.203-4.648 .086-4.463 .283-4.176 .389-3.786L.574-3.099C.49-3.191 .398-3.275 .301-3.351-.188-3.733-.791-3.926-1.51-3.926-2.219-3.926-2.775-3.772-3.178-3.465-3.578-3.158-3.781-2.733-3.785-2.191-3.785-2.075-3.775-1.944-3.752-1.801-3.73-1.657-3.699-1.515-3.658-1.374-3.461-.658-3.029-.064-2.363 .409-1.697 .882-.959 1.118-.152 1.118 .59 1.118 1.109 .913 1.404 .503 1.469 .416 1.523 .317 1.568 .207L1.785 .988H3.424L2.127-3.643C1.916-4.409 1.498-4.978 .869-5.347 .242-5.717-.617-5.901-1.707-5.901-2.631-5.901-3.326-5.775-3.791-5.522-4.254-5.269-4.451-4.907-4.377-4.438H-2.488C-2.488-4.617-2.404-4.743-2.236-4.817-2.068-4.891-1.779-4.927-1.367-4.927" fill="#1f2e60"/>
<path transform="matrix(1,0,0,-1,65.4512,181.0586)" d="M0 0 .162 .593C-.002 .524-.184 .474-.383 .44L-1.086 .337C-1.545 .269-1.875 .182-2.076 .076-2.275-.028-2.404-.181-2.461-.382-2.469-.411-2.469-.411-2.461-.382-2.469-.411-2.475-.441-2.479-.472-2.482-.501-2.484-.529-2.484-.557-2.484-.694-2.424-.801-2.305-.876-2.186-.95-2.02-.988-1.807-.988-1.256-.988-.77-.826-.346-.503-.273-.449-.205-.374-.139-.278-.07-.18-.023-.087 0 0M-2.545-1.908C-3.086-1.908-3.512-1.813-3.82-1.623-4.129-1.434-4.283-1.169-4.283-.831-4.283-.776-4.277-.716-4.268-.646-4.258-.577-4.242-.51-4.223-.444-4.109-.037-3.838 .304-3.41 .58-2.982 .855-2.457 1.024-1.836 1.087L-.369 1.24C-.232 1.255-.104 1.28 .018 1.316 .172 1.361 .289 1.427 .369 1.512 .451 1.597 .488 1.696 .484 1.811 .48 1.93 .426 2.021 .32 2.084 .172 2.171-.1 2.215-.49 2.215-.789 2.215-1.043 2.157-1.254 2.042-1.465 1.927-1.627 1.755-1.744 1.527H-3.387C-3.217 2.087-2.846 2.513-2.271 2.803-1.697 3.094-.945 3.238-.012 3.238 .84 3.238 1.455 3.116 1.836 2.87 2.119 2.69 2.258 2.447 2.254 2.142 2.258 2.037 2.242 1.925 2.205 1.805L1.461-.861C1.4-1.077 1.381-1.243 1.406-1.358 1.43-1.474 1.5-1.554 1.617-1.599V-1.604L1.568-1.778H.629-.313V-1.773C-.34-1.582-.336-1.392-.301-1.203-.982-1.674-1.73-1.908-2.545-1.908" fill="#1f2e60"/>
<path transform="matrix(1,0,0,-1,72.3613,179.414)" d="M0 0C0 .228-.072 .388-.219 .482-.363 .577-.615 .624-.971 .624-1.297 .624-1.561 .587-1.762 .512-1.963 .437-2.082 .333-2.115 .202-2.148 .088-2.08-.01-1.91-.09-1.742-.168-1.434-.247-.982-.328 .012-.508 .668-.709 .986-.93 1.232-1.095 1.355-1.313 1.355-1.586 1.355-1.685 1.34-1.791 1.309-1.904 1.166-2.411 .793-2.812 .184-3.108-.424-3.405-1.178-3.553-2.076-3.553-3.078-3.553-3.805-3.412-4.258-3.131-4.625-2.9-4.811-2.575-4.814-2.156L-4.783-1.859H-3.008C-3.049-2.105-2.963-2.287-2.752-2.405-2.541-2.523-2.193-2.583-1.707-2.583-1.389-2.583-1.127-2.539-.922-2.45-.719-2.362-.594-2.24-.549-2.084-.518-1.965-.59-1.864-.768-1.783-.947-1.702-1.285-1.619-1.775-1.532-2.744-1.364-3.383-1.173-3.691-.957-3.916-.799-4.029-.589-4.029-.328-4.029-.227-4.014-.119-3.98-.005-3.844 .486-3.496 .875-2.936 1.163-2.377 1.45-1.689 1.594-.873 1.594 .072 1.594 .76 1.459 1.191 1.189 1.535 .978 1.707 .683 1.707 .305 1.707 .212 1.695 .11 1.672 0Z" fill="#1f2e60"/>
<path transform="matrix(1,0,0,-1,80.6738,178.9336)" d="M0 0C-.443 0-.84-.136-1.186-.406-1.533-.678-1.77-1.035-1.895-1.478-1.922-1.577-1.943-1.674-1.957-1.77-1.971-1.866-1.979-1.951-1.979-2.026-1.979-2.328-1.879-2.562-1.68-2.727-1.479-2.892-1.197-2.974-.834-2.974-.387-2.974 .01-2.843 .357-2.581 .703-2.318 .936-1.974 1.053-1.545 1.189-1.051 1.168-.67 .986-.402 .805-.134 .477 0 0 0M-1.652-4.033C-2.32-4.033-2.842-3.876-3.219-3.56-3.598-3.244-3.787-2.806-3.787-2.246-3.787-2.111-3.773-1.959-3.748-1.79-3.721-1.621-3.686-1.454-3.641-1.289-3.447-.601-3.033-.028-2.4 .429-1.766 .886-1.066 1.113-.299 1.113 .541 1.113 1.131 .879 1.469 .408L1.5 .368 2.156 2.699H3.023 3.895L2.053-3.903H1.188 .314L.469-3.351C-.17-3.806-.877-4.033-1.652-4.033" fill="#1f2e60"/>
<path transform="matrix(1,0,0,-1,88.4453,179.8818)" d="M0 0 .006 .171C.006 .452-.084 .661-.264 .798-.443 .934-.717 1.002-1.082 1.002-1.547 1.002-1.932 .868-2.238 .603-2.416 .446-2.566 .246-2.691 0ZM-2.086-3.085C-2.945-3.085-3.605-2.935-4.064-2.634-4.521-2.333-4.752-1.899-4.752-1.334-4.748-1.214-4.734-1.085-4.715-.947-4.695-.81-4.666-.671-4.631-.529-4.404 .281-3.951 .917-3.27 1.375-2.59 1.833-1.76 2.062-.777 2.062 .051 2.062 .676 1.912 1.1 1.612 1.525 1.313 1.736 .873 1.736 .292 1.736 .148 1.725-.006 1.699-.17 1.674-.335 1.635-.506 1.582-.683L1.535-.84H-2.977L-2.988-.902C-3.004-.992-3.014-1.078-3.014-1.158-3.01-1.455-2.906-1.678-2.705-1.825-2.504-1.974-2.199-2.048-1.791-2.048-1.498-2.048-1.23-2.001-.988-1.906-.746-1.812-.576-1.688-.475-1.536H1.289C.98-2.012 .523-2.389-.084-2.668-.691-2.946-1.359-3.085-2.086-3.085" fill="#1f2e60"/>
<path transform="matrix(1,0,0,-1,96.3984,177.4111)" d="M0 0H-2.727L-2.551 .588-2.375 1.177H4.891L4.738 .588 4.586 0H1.855L.34-5.426H-.588-1.516Z" fill="#1f2e60"/>
<path transform="matrix(1,0,0,-1,105.1797,175.9336)" d="M0 0 1.018-1.343H-.369L-.945-.593-1.939-1.343H-3.357L-1.539 0H-.77ZM-.67-3.948-.664-3.777C-.664-3.496-.754-3.287-.934-3.15-1.113-3.015-1.387-2.946-1.754-2.946-2.217-2.946-2.602-3.08-2.908-3.346-3.086-3.502-3.238-3.702-3.363-3.948ZM-2.758-7.033C-3.617-7.033-4.277-6.883-4.734-6.582-5.193-6.281-5.422-5.848-5.422-5.282-5.418-5.162-5.406-5.033-5.387-4.896-5.365-4.758-5.338-4.619-5.301-4.478-5.074-3.667-4.621-3.031-3.941-2.573-3.26-2.115-2.43-1.887-1.449-1.887-.621-1.887 .006-2.036 .43-2.336 .854-2.635 1.066-3.075 1.066-3.656 1.066-3.8 1.053-3.954 1.029-4.118 1.004-4.283 .965-4.454 .91-4.631L.863-4.788H-3.646L-3.66-4.851C-3.676-4.94-3.684-5.026-3.684-5.106-3.68-5.403-3.576-5.626-3.375-5.773-3.174-5.922-2.869-5.996-2.463-5.996-2.168-5.996-1.9-5.949-1.658-5.854-1.418-5.76-1.246-5.637-1.145-5.484H.617C.311-5.96-.146-6.337-.754-6.616-1.363-6.895-2.029-7.033-2.758-7.033" fill="#1f2e60"/>
<path transform="matrix(1,0,0,-1,107.3398,177.9502)" d="M0 0H.844 1.688L1.494-.7 1.736-.499C2.285-.079 2.951 .13 3.734 .13 4.445 .13 4.959-.019 5.279-.316 5.598-.614 5.682-1.027 5.533-1.554L4.604-4.887H3.738 2.867L3.709-1.868C3.793-1.557 3.77-1.326 3.637-1.177 3.502-1.027 3.254-.952 2.889-.952 2.443-.952 2.066-1.052 1.76-1.251 1.451-1.45 1.248-1.727 1.152-2.079L.375-4.887H-.492-1.363Z" fill="#1f2e60"/>
<path transform="matrix(1,0,0,-1,114.8965,176.1806)" d="M0 0H1.758L1.43-1.177H-.326ZM-.551-1.77H.314 1.188L-.176-6.656H-1.041-1.914Z" fill="#1f2e60"/>
<path transform="matrix(1,0,0,-1,120.5527,179.414)" d="M0 0C0 .228-.072 .388-.219 .482-.363 .577-.615 .624-.971 .624-1.297 .624-1.561 .587-1.762 .512-1.963 .437-2.082 .333-2.115 .202-2.148 .088-2.08-.01-1.91-.09-1.742-.168-1.434-.247-.982-.328 .012-.508 .668-.709 .986-.93 1.232-1.095 1.355-1.313 1.355-1.586 1.355-1.685 1.34-1.791 1.309-1.904 1.166-2.411 .793-2.812 .184-3.108-.424-3.405-1.178-3.553-2.076-3.553-3.078-3.553-3.805-3.412-4.258-3.131-4.625-2.9-4.811-2.575-4.814-2.156L-4.783-1.859H-3.008C-3.049-2.105-2.963-2.287-2.752-2.405-2.541-2.523-2.193-2.583-1.707-2.583-1.389-2.583-1.127-2.539-.922-2.45-.719-2.362-.594-2.24-.549-2.084-.518-1.965-.59-1.864-.768-1.783-.947-1.702-1.285-1.619-1.775-1.532-2.744-1.364-3.383-1.173-3.691-.957-3.916-.799-4.029-.589-4.029-.328-4.029-.227-4.014-.119-3.98-.005-3.844 .486-3.496 .875-2.936 1.163-2.377 1.45-1.689 1.594-.873 1.594 .072 1.594 .76 1.459 1.191 1.189 1.535 .978 1.707 .683 1.707 .305 1.707 .212 1.695 .11 1.672 0Z" fill="#1f2e60"/>
<path transform="matrix(1,0,0,-1,93.8682,122.3847)" d="M0 0C-.504-.1-.971-.236-1.371-.42-3.984-1.628-5.224-8.484-5.224-8.484L9.843-8.463C9.843-8.463 .762-39.151 .313-40.992-.132-42.831-.264-44.628 .72-45.483 1.844-46.469 5.188-46.488 7.576-46.476 8.176-46.474 10.36-46.459 10.36-46.459 10.36-46.459 10.828-44.7 11.016-44.087 14.44-32.838 21.465-8.484 21.465-8.484 21.467-8.484 31.297-8.506 31.297-8.506 31.297-8.506 31.759-8.492 31.889-8.484 32.996-8.405 34.02-8.21 34.59-7.894 36.61-6.777 38.009-2.96 39.064 .186L1.712 .189C1.712 .189 .39 .082 0 0" fill="#1f2e60" fill-rule="evenodd"/>
<path transform="matrix(1,0,0,-1,60.0166,161.3974)" d="M0 0C0 0 10.348 35.739 10.362 35.797 10.763 37.268 10.656 38.002 10.292 38.679 10.018 39.185 9.583 40.026 8.015 40.026 7.735 40.026 .194 40.007 .194 40.007-.525 37.608-12.66-2.804-12.871-4.413-13.41-8.5-10.72-8.513-6.53-8.489-6.381-8.489 19.967-8.479 19.967-8.479 19.967-8.479 21.872-2.897 21.372-1.639 20.896-.458 19.196-.103 17.231-.007 15.813 .056 0 0 0 0" fill="#1f2e60" fill-rule="evenodd"/>
<path transform="matrix(1,0,0,-1,135.1045,64.043)" d="M0 0C-3.527 .184-6.533-2.527-6.717-6.052-6.9-9.577-4.191-12.584-.668-12.768 2.857-12.952 5.865-10.242 6.049-6.717 6.232-3.191 3.523-.185 0 0" fill="#29aae1"/>
<path transform="matrix(1,0,0,-1,125.1318,96.1611)" d="M0 0C0 0 1.391 .876 2.213 1.466 3.033 2.056 4.586 3.079 4.855 3.698 5.125 4.316 5.848 6.018 5.123 5.819 4.404 5.618 .623 2.892-1.158 2.036-2.939 1.182-4.086 .45-4.086 .45-4.086 .45-5.594 .291-6.387 .253-8.246 .167-10.188 .47-12.041 .604-13.15 .685-14.293 .698-15.393 .854-16.262 .978-16.236 1.285-16.822 1.688-17.547 2.184-18.047 2.446-18.945 2.827-20.361 3.429-21.775 4.038-23.189 4.644-24.703 5.292-29.229 8.333-30.502 6.093L-36.131 10.259-33.812 11.974-36.95 15.27C-38.992 13.843-40.832 12.559-40.832 12.559-40.832 12.559-44.334 15.11-53.074 15.725-54.34 16.7-55.619 17.659-56.873 18.646-57.684 19.282-58.588 19.859-59.354 20.546-60.621 21.685-61.221 23.559-62.037 25.024-62.674 26.171-63.313 27.315-63.949 28.461-64.227 28.966-63.467 30.245-63.295 30.736-62.99 31.61-62.844 32.849-62.258 33.589-61.836 34.118-61.42 35.243-61.42 35.243-61.42 35.243-59.904 37.062-58.891 38.312-57.877 39.563-55.883 43.726-55.789 45.5-55.789 45.5-54.758 47.105-54.467 48.157-54.174 49.209-53.699 53.807-53.91 54.292-54.121 54.777-54.514 54.087-54.65 53.737-54.607 53.849-54.91 54.728-54.873 55.055-54.686 56.677-54.336 58.321-54.244 60.005-54.184 61.145-54.563 62.092-54.393 63.202-54.203 64.419-53.986 65.366-54.863 66.503-55.613 67.476-55.797 67.198-56.02 68.358-56.309 69.86-56.4 69.778-57.891 69.998-58.457 70.081-58.855 70.042-59.379 70.321-59.785 70.538-59.912 71.103-60.391 71.243-60.727 71.341-61.043 71.08-61.35 71.063-62.428 71.008-62.215 71.465-63.209 71.886-63.814 72.141-64.92 72.101-65.578 71.95-66.467 71.745-66.867 70.87-67.537 70.634-68.215 70.396-69.867 70.747-70.607 70.835-71.518 70.944-72.064 70.925-72.949 70.81-73.619 70.722-74.256 71.101-74.846 71.042-75.84 70.94-75.082 70.734-74.891 70.128-74.697 69.518-74.711 69.461-75.207 68.819-75.631 68.269-76.537 67.95-76.641 67.173-76.707 66.673-76.512 66.085-76.529 65.567-76.57 64.508-76.926 63.486-77.01 62.432-75.934 61.843-76.234 60.129-76.338 59.146-76.455 58.05-76.285 56.324-76.664 55.354-76.541 55.663-77.627 55.436-77.703 55.401-78.025 55.256-78.359 54.651-78.486 54.339-78.787 53.593-78.662 52.698-78.514 51.935-78.307 50.854-76.014 47.022-78.586 47.131-78.822 46.271-78.602 45.37-77.982 44.743-78.377 44.681-78.955 44.261-79.26 44.179-78.609 44.351-77.65 43.847-76.906 43.976-76.969 43.313-79.238 41.392-79.84 41.182-79.84 41.182-85.756 39.119-88.262 36.523-90.768 33.927-93.055 30.965-93.055 30.965-93.055 30.965-95.832 25.419-96.369 24.263-96.902 23.104-99.197 20.024-100.199 19.009-101.199 17.995-103.645 14.329-104.09 12.573-104.537 10.819-106.791 6.196-107.104 4.79-107.414 3.383-109.027-.326-109.121-2.102-109.391-7.271-108.795-12.858-109.852-17.938-110.461-20.864-110.898-23.599-111.965-27.234-106.143-24.788-98.975-21.505-93.285-19.263-90.873-18.313-75.313-15.845-74.637-14.811-71.668-10.267-67.016-2.382-65.842 2.759-62.801 2.819-59.746 2.872-56.707 2.901-55.408 2.915-54.707 2.067-53.633 1.544-50.162-.143-45.168-.33-41.395-1.124-38.695-1.692-35.994-2.269-33.297-2.849L-32.75-3.706C-30.77-4.12-28.791-4.54-26.809-4.952-25.451-5.234-24.094-5.515-22.734-5.795-20.873-6.179-19.65-6.149-17.859-6.853-17.162-7.127-9.574-7.048-9.574-7.048-9.574-7.048-7.369-7.992-6.447-8.515-5.527-9.036-1.637-9.477-1.383-9.134-1.129-8.792-1.229-8.431-2.273-8.021-2.787-7.819-7.113-5.507-6.742-5.062-6.363-4.607-5.275-4.189-4.088-4.134-2.896-4.077-1.959-4.244-1-4.057-.043-3.87 .313-3.889 1.623-3.72 2.938-3.55 4.125-3.494 4.387-3.032 4.596-2.667 4.746-2.257 4.941-1.899 4.844-2.077 6.385-1.838 6.527-1.757 7.016-1.481 7.404-.958 7.695-.493 7.193-.137 6.451-.099 5.848-.067 4.348 .011 0 0 0 0" fill="#29aae1"/>
<path transform="matrix(1,0,0,-1,149.5742,43.6474)" d="M0 0C-4.985-6.425-23.818-19.585-23.818-19.585-26.427-21.247-29.115-22.899-31.979-24.093-32.745-24.412-36.286-25.98-36.806-25.107-37.212-24.425-32.292-19.7-30.769-18.382-27.835-15.844-24.75-13.485-21.588-11.239-15.013-6.57-8.097-2.237-.938 1.495 1.185 2.131 0 0 0 0M-44.737-30.263-38.202-24.638C-40.187-27.06-37.571-26.846-37.571-26.846ZM1.173 3.887C-.284 5.415-3.634 3.952-3.634 3.952-12.06 1.466-28.601-12.435-28.601-12.435L-47.751-28.37C-47.751-28.37-54.765-34.007-55.022-33.989-55.281-33.972-56.326-34.031-56.326-34.031L-67.628-41.589-62.54-44.208-52.958-37.12-52.644-36.296C-51.874-35.503-44.907-31.487-43.033-30.704-41.16-29.921-29.138-24.231-29.138-24.231-12.458-15.021 .979-.911 .979-.911 3.519 2.038 1.173 3.887 1.173 3.887" fill="#29aae1"/>
<path transform="matrix(1,0,0,-1,149.5781,118.8877)" d="M0 0C0 0-60.179 34.831-139.481-5.777L-141.035-7.249C-61.397 26.39 2.748-.8 2.748-.8Z" fill="#1f2e60" fill-rule="evenodd"/>
</g>
</g>
</svg>
