<svg xmlns="http://www.w3.org/2000/svg" xmlns:xlink="http://www.w3.org/1999/xlink" xmlns:inkscape="http://www.inkscape.org/namespaces/inkscape" version="1.1" width="163.998" height="188.666" viewBox="0 0 163.998 188.666">
<defs>
<clipPath id="clip_1">
<path transform="matrix(1,0,0,-1,0,188.666)" d="M0 188.666H163.998V0H0Z"/>
</clipPath>
</defs>
<g inkscape:groupmode="layer" inkscape:label="Layer 1">
<g clip-path="url(#clip_1)">
<path transform="matrix(1,0,0,-1,163.998,174.6914)" d="M0 0C0-7.719-6.346-13.975-14.172-13.975H-149.826C-157.652-13.975-163.998-7.719-163.998 0V160.717C-163.998 168.435-157.652 174.691-149.826 174.691H-14.172C-6.346 174.691 0 168.435 0 160.717Z" fill="#1d3a68"/>
<path transform="matrix(1,0,0,-1,133.1035,60.039995)" d="M0 0C-3.527 .184-6.533-2.527-6.717-6.052-6.9-9.577-4.191-12.584-.668-12.768 2.857-12.952 5.865-10.242 6.049-6.717 6.232-3.191 3.523-.185 0 0" fill="#29aae1"/>
<path transform="matrix(1,0,0,-1,123.1309,92.1582)" d="M0 0C0 0 1.391 .876 2.213 1.466 3.033 2.056 4.586 3.079 4.855 3.698 5.125 4.316 5.848 6.018 5.123 5.819 4.404 5.618 .623 2.892-1.158 2.036-2.939 1.182-4.086 .45-4.086 .45-4.086 .45-5.594 .291-6.387 .253-8.246 .167-10.188 .47-12.041 .604-13.15 .685-14.293 .698-15.393 .854-16.262 .978-16.236 1.285-16.822 1.688-17.547 2.184-18.047 2.446-18.945 2.827-20.361 3.429-21.775 4.038-23.189 4.644-24.703 5.292-29.229 8.333-30.502 6.093L-36.131 10.259-33.812 11.974-36.95 15.27C-38.992 13.843-40.832 12.559-40.832 12.559-40.832 12.559-44.334 15.11-53.074 15.725-54.34 16.7-55.619 17.659-56.873 18.646-57.684 19.282-58.588 19.859-59.354 20.546-60.621 21.685-61.221 23.559-62.037 25.024-62.674 26.171-63.313 27.315-63.949 28.461-64.227 28.966-63.467 30.245-63.295 30.736-62.99 31.61-62.844 32.849-62.258 33.589-61.836 34.118-61.42 35.243-61.42 35.243-61.42 35.243-59.904 37.062-58.891 38.312-57.877 39.563-55.883 43.726-55.789 45.5-55.789 45.5-54.758 47.105-54.467 48.157-54.174 49.209-53.699 53.807-53.91 54.292-54.121 54.776-54.514 54.087-54.65 53.737-54.607 53.849-54.91 54.728-54.873 55.054-54.686 56.676-54.336 58.319-54.244 60.003-54.184 61.144-54.563 62.091-54.393 63.2-54.203 64.417-53.986 65.364-54.863 66.501-55.613 67.474-55.797 67.196-56.02 68.356-56.309 69.858-56.4 69.776-57.891 69.997-58.457 70.079-58.855 70.04-59.379 70.319-59.785 70.536-59.912 71.101-60.391 71.241-60.727 71.339-61.043 71.079-61.35 71.062-62.428 71.007-62.215 71.464-63.209 71.884-63.814 72.14-64.92 72.099-65.578 71.948-66.467 71.743-66.867 70.868-67.537 70.632-68.215 70.394-69.867 70.745-70.607 70.833-71.518 70.942-72.064 70.923-72.949 70.808-73.619 70.72-74.256 71.099-74.846 71.04-75.84 70.938-75.082 70.733-74.891 70.126-74.697 69.517-74.711 69.46-75.207 68.817-75.631 68.267-76.537 67.948-76.641 67.171-76.707 66.671-76.512 66.083-76.529 65.565-76.57 64.507-76.926 63.485-77.01 62.431-75.934 61.841-76.234 60.128-76.338 59.144-76.455 58.048-76.285 56.323-76.664 55.354-76.541 55.663-77.627 55.435-77.703 55.401-78.025 55.255-78.359 54.651-78.486 54.339-78.787 53.593-78.662 52.698-78.514 51.935-78.307 50.854-76.014 47.022-78.586 47.131-78.822 46.271-78.602 45.37-77.982 44.743-78.377 44.681-78.955 44.261-79.26 44.179-78.609 44.351-77.65 43.847-76.906 43.976-76.969 43.313-79.238 41.392-79.84 41.182-79.84 41.182-85.756 39.119-88.262 36.523-90.768 33.927-93.055 30.965-93.055 30.965-93.055 30.965-95.832 25.419-96.369 24.263-96.902 23.104-99.197 20.024-100.199 19.009-101.199 17.995-103.645 14.329-104.09 12.573-104.537 10.819-106.791 6.196-107.104 4.79-107.414 3.383-109.027-.326-109.121-2.102-109.391-7.271-108.795-12.858-109.852-17.938-110.461-20.864-110.898-23.599-111.965-27.234-106.143-24.788-98.975-21.505-93.285-19.263-90.873-18.313-75.313-15.845-74.637-14.811-71.668-10.267-67.016-2.382-65.842 2.759-62.801 2.819-59.746 2.872-56.707 2.901-55.408 2.915-54.707 2.067-53.633 1.544-50.162-.143-45.168-.33-41.395-1.124-38.695-1.692-35.994-2.269-33.297-2.849L-32.75-3.706C-30.77-4.12-28.791-4.54-26.809-4.952-25.451-5.234-24.094-5.515-22.734-5.795-20.873-6.179-19.65-6.149-17.859-6.853-17.162-7.127-9.574-7.048-9.574-7.048-9.574-7.048-7.369-7.992-6.447-8.515-5.527-9.036-1.637-9.477-1.383-9.134-1.129-8.792-1.229-8.431-2.273-8.021-2.787-7.819-7.113-5.507-6.742-5.062-6.363-4.607-5.275-4.189-4.088-4.134-2.896-4.077-1.959-4.244-1-4.057-.043-3.87 .313-3.889 1.623-3.72 2.938-3.55 4.125-3.494 4.387-3.032 4.596-2.667 4.746-2.257 4.941-1.899 4.844-2.077 6.385-1.838 6.527-1.757 7.016-1.481 7.404-.958 7.695-.493 7.193-.137 6.451-.099 5.848-.067 4.348 .011 0 0 0 0" fill="#29aae1"/>
<path transform="matrix(1,0,0,-1,147.5732,39.6445)" d="M0 0C-4.985-6.425-23.818-19.585-23.818-19.585-26.427-21.247-29.115-22.899-31.979-24.093-32.745-24.412-36.286-25.98-36.806-25.107-37.212-24.425-32.292-19.7-30.769-18.382-27.835-15.844-24.75-13.485-21.588-11.239-15.013-6.57-8.097-2.237-.938 1.495 1.185 2.131 0 0 0 0M-44.737-30.263-38.202-24.638C-40.187-27.06-37.571-26.846-37.571-26.846ZM1.173 3.886C-.284 5.413-3.634 3.951-3.634 3.951-12.06 1.466-28.601-12.435-28.601-12.435L-47.751-28.37C-47.751-28.37-54.765-34.007-55.022-33.989-55.281-33.972-56.326-34.031-56.326-34.031L-67.628-41.589-62.54-44.208-52.958-37.12-52.644-36.296C-51.874-35.503-44.907-31.487-43.033-30.704-41.16-29.921-29.138-24.231-29.138-24.231-12.458-15.021 .979-.911 .979-.911 3.519 2.038 1.173 3.886 1.173 3.886" fill="#29aae1"/>
<path transform="matrix(1,0,0,-1,147.5771,114.8847)" d="M0 0C0 0-60.179 34.831-139.481-5.777L-141.035-7.249C-61.397 26.39 2.748-.8 2.748-.8Z" fill="#f9fafb" fill-rule="evenodd"/>
<path transform="matrix(1,0,0,-1,6.8818,179.5351)" d="M0 0 2.103 7.537H3.162 4.221L2.494 1.344H7.545L7.344 .672 7.144 0Z" fill="#f9fafb"/>
<path transform="matrix(1,0,0,-1,16.9063,171.9375)" d="M0 0H2.005L1.632-1.343H-.374ZM-.63-2.02H.359 1.355L-.2-7.598H-1.189-2.185Z" fill="#f9fafb"/>
<path transform="matrix(1,0,0,-1,22.5117,175.0849)" d="M0 0C-.493 0-.933-.148-1.317-.446-1.702-.743-1.962-1.137-2.095-1.625-2.128-1.731-2.15-1.836-2.164-1.94-2.179-2.045-2.188-2.14-2.192-2.226-2.192-2.557-2.081-2.813-1.86-2.997-1.639-3.18-1.325-3.271-.919-3.271-.422-3.271 .019-3.128 .401-2.841 .784-2.554 1.04-2.174 1.169-1.702 1.321-1.159 1.296-.739 1.093-.443 .89-.147 .526 0 0 0M-1.562-5.624C-1.005-5.624-.562-5.519-.231-5.307 .098-5.095 .323-4.767 .442-4.322L.655-3.538C.558-3.644 .454-3.739 .344-3.825-.214-4.263-.903-4.481-1.724-4.481-2.534-4.481-3.169-4.306-3.628-3.955-4.086-3.605-4.317-3.121-4.322-2.502-4.322-2.368-4.31-2.22-4.284-2.056-4.259-1.892-4.224-1.729-4.177-1.569-3.951-.752-3.458-.073-2.697 .467-1.937 1.007-1.097 1.276-.175 1.276 .674 1.276 1.267 1.042 1.603 .574 1.677 .475 1.738 .362 1.789 .235L2.038 1.128H3.907L2.427-4.158C2.188-5.033 1.709-5.682 .993-6.104 .276-6.525-.704-6.737-1.948-6.737-3.005-6.737-3.797-6.593-4.327-6.304-4.856-6.015-5.081-5.602-4.997-5.065H-2.84C-2.84-5.271-2.745-5.415-2.554-5.499-2.362-5.582-2.032-5.624-1.562-5.624" fill="#f9fafb"/>
<path transform="matrix(1,0,0,-1,30.585,177.5049)" d="M0 0 .186 .677C-.004 .598-.211 .54-.438 .503L-1.238 .385C-1.765 .306-2.141 .207-2.369 .087-2.598-.032-2.744-.207-2.809-.436-2.818-.47-2.818-.47-2.809-.436-2.818-.47-2.824-.504-2.829-.538-2.834-.572-2.836-.604-2.836-.636-2.836-.793-2.768-.914-2.633-1-2.496-1.085-2.307-1.128-2.062-1.128-1.435-1.128-.879-.943-.395-.574-.313-.513-.233-.428-.16-.317-.081-.205-.028-.1 0 0M-2.906-2.179C-3.523-2.179-4.008-2.07-4.36-1.854-4.713-1.637-4.889-1.335-4.889-.948-4.889-.887-4.883-.817-4.871-.738-4.86-.66-4.843-.583-4.82-.508-4.691-.043-4.382 .347-3.893 .661-3.404 .976-2.805 1.169-2.096 1.241L-.422 1.415C-.266 1.432-.117 1.461 .021 1.502 .195 1.554 .33 1.628 .422 1.726 .514 1.822 .558 1.937 .553 2.066 .549 2.203 .486 2.308 .366 2.379 .195 2.478-.113 2.527-.561 2.527-.901 2.527-1.191 2.462-1.432 2.33-1.672 2.198-1.857 2.003-1.992 1.743H-3.865C-3.672 2.382-3.248 2.867-2.594 3.199-1.939 3.53-1.079 3.696-.014 3.696 .959 3.696 1.662 3.557 2.096 3.275 2.418 3.07 2.576 2.793 2.572 2.444 2.576 2.324 2.559 2.196 2.518 2.06L1.666-.983C1.598-1.229 1.576-1.419 1.604-1.551 1.632-1.683 1.713-1.774 1.846-1.825V-1.83L1.791-2.03H.717-.356V-2.025C-.389-1.807-.385-1.589-.343-1.374-1.121-1.911-1.976-2.179-2.906-2.179" fill="#f9fafb"/>
<path transform="matrix(1,0,0,-1,43.3877,174.2597)" d="M0 0C0 .431-.128 .734-.383 .91-.637 1.086-1.075 1.174-1.697 1.174-2.197 1.174-2.61 1.086-2.937 .91-3.262 .734-3.467 .489-3.549 .175-3.617-.071-3.516-.256-3.244-.379-2.986-.502-2.41-.639-1.515-.789-.17-1.019 .701-1.29 1.1-1.604 1.384-1.816 1.526-2.117 1.526-2.507 1.526-2.695 1.494-2.901 1.43-3.127 1.227-3.858 .695-4.432-.162-4.845-1.01-5.259-2.09-5.465-3.399-5.465-4.709-5.465-5.656-5.255-6.242-4.834-6.709-4.5-6.939-4.029-6.934-3.425-6.939-3.271-6.926-3.108-6.893-2.938H-4.859C-4.934-3.361-4.83-3.676-4.548-3.881-4.266-4.086-3.8-4.188-3.148-4.188-2.502-4.188-1.974-4.104-1.564-3.932-1.156-3.762-.912-3.525-.834-3.225-.756-2.947-.833-2.744-1.066-2.614-1.29-2.488-1.797-2.358-2.586-2.225-4.033-1.979-4.975-1.7-5.408-1.389-5.728-1.174-5.887-.866-5.887-.467-5.887-.303-5.859-.121-5.804 .077-5.596 .822-5.086 1.404-4.273 1.823-3.46 2.241-2.436 2.451-1.201 2.451-.013 2.451 .855 2.242 1.404 1.825 1.859 1.483 2.09 1.01 2.096 .405L2.061 0Z" fill="#f9fafb"/>
<path transform="matrix(1,0,0,-1,47.2764,173.1113)" d="M0 0C.197 .39 .484 .699 .857 .928 1.23 1.157 1.634 1.271 2.067 1.271 2.188 1.271 2.349 1.25 2.551 1.208 2.754 1.165 2.943 1.113 3.119 1.051 3.252 1.007 3.392 .969 3.537 .936 3.682 .903 3.793 .887 3.872 .887 4.029 .887 4.185 .929 4.339 1.013 4.493 1.097 4.603 1.2 4.668 1.323H5.566C5.382 .923 5.123 .611 4.789 .388 4.454 .163 4.084 .052 3.679 .052 3.535 .052 3.344 .073 3.104 .115 2.865 .158 2.646 .211 2.447 .271 2.291 .316 2.141 .354 1.994 .388 1.85 .42 1.747 .436 1.688 .436 1.535 .436 1.383 .395 1.23 .311 1.078 .227 .968 .123 .898 0ZM2.44-4.394 2.627-3.717C2.438-3.796 2.23-3.854 2.004-3.891L1.202-4.009C.676-4.088 .3-4.187 .071-4.307-.156-4.426-.303-4.601-.367-4.829-.377-4.863-.377-4.863-.367-4.829-.377-4.863-.384-4.897-.389-4.932-.393-4.966-.395-4.998-.395-5.029-.395-5.187-.327-5.308-.191-5.394-.055-5.479 .135-5.521 .379-5.521 1.006-5.521 1.563-5.337 2.047-4.968 2.129-4.906 2.207-4.821 2.281-4.711 2.359-4.599 2.412-4.493 2.44-4.394M-.465-6.572C-1.082-6.572-1.567-6.464-1.92-6.247-2.271-6.03-2.448-5.729-2.448-5.342-2.448-5.28-2.442-5.211-2.431-5.132-2.42-5.054-2.402-4.977-2.379-4.901-2.25-4.437-1.941-4.047-1.452-3.732-.964-3.418-.364-3.225 .346-3.152L2.02-2.979C2.176-2.962 2.323-2.933 2.461-2.892 2.637-2.84 2.771-2.766 2.863-2.668 2.955-2.571 2.998-2.457 2.994-2.327 2.989-2.19 2.928-2.086 2.807-2.015 2.637-1.916 2.328-1.866 1.881-1.866 1.539-1.866 1.249-1.932 1.01-2.063 .77-2.195 .583-2.391 .449-2.65H-1.425C-1.23-2.012-.807-1.526-.152-1.194 .502-.863 1.361-.697 2.427-.697 3.399-.697 4.103-.837 4.536-1.118 4.858-1.323 5.018-1.601 5.014-1.949 5.018-2.069 5-2.197 4.958-2.334L4.107-5.377C4.038-5.623 4.018-5.813 4.045-5.944 4.072-6.076 4.153-6.168 4.287-6.219V-6.224L4.231-6.424H3.158 2.084V-6.419C2.052-6.2 2.057-5.982 2.098-5.768 1.32-6.305 .465-6.572-.465-6.572" fill="#f9fafb"/>
<path transform="matrix(1,0,0,-1,57.3545,178.0078)" d="M0 0C.381 .294 .654 .737 .819 1.328 .847 1.424 .867 1.52 .881 1.615 .895 1.711 .902 1.798 .902 1.877 .902 2.222 .778 2.489 .53 2.68 .282 2.869-.069 2.964-.523 2.964-1.123 2.964-1.614 2.814-1.997 2.516-2.38 2.216-2.656 1.766-2.827 1.164-2.85 1.072-2.869 .979-2.886 .888-2.902 .795-2.908 .71-2.902 .631-2.902 .289-2.779 .025-2.531-.161-2.284-.348-1.932-.44-1.473-.44-.872-.44-.381-.294 0 0M-4.124-1.104C-4.688-.724-4.974-.205-4.979 .451-4.979 .564-4.968 .691-4.947 .834-4.926 .976-4.897 1.111-4.86 1.241-4.607 2.146-4.06 2.866-3.219 3.399-2.377 3.933-1.363 4.199-.18 4.199 .793 4.199 1.563 4.006 2.127 3.62 2.691 3.233 2.975 2.709 2.975 2.046 2.975 1.93 2.963 1.8 2.939 1.656 2.916 1.513 2.887 1.375 2.85 1.241 2.601 .346 2.056-.364 1.215-.889 .373-1.414-.638-1.676-1.818-1.676-2.791-1.676-3.559-1.485-4.124-1.104" fill="#f9fafb"/>
<path transform="matrix(1,0,0,-1,66.707,175.4951)" d="M0 0H2.039C2.573 0 2.993 .09 3.3 .27 3.606 .448 3.813 .725 3.919 1.097 3.937 1.165 3.951 1.228 3.96 1.284 3.97 1.341 3.974 1.395 3.974 1.446 3.974 1.712 3.845 1.906 3.587 2.027 3.329 2.149 2.917 2.21 2.351 2.21H.616ZM-1.144 3.497H-.085 3.414C4.294 3.497 4.968 3.353 5.433 3.063 5.899 2.774 6.132 2.358 6.132 1.815V1.8C6.132 1.693 6.122 1.578 6.104 1.453 6.085 1.329 6.058 1.201 6.021 1.071 5.817 .354 5.354-.224 4.63-.661 3.905-1.099 3.05-1.317 2.062-1.317H-.382-.374L-1.127-4.04H-2.187-3.245Z" fill="#f9fafb"/>
<path transform="matrix(1,0,0,-1,76.791,177.5049)" d="M0 0 .187 .677C-.003 .598-.21 .54-.437 .503L-1.238 .385C-1.765 .306-2.141 .207-2.369 .087-2.597-.032-2.743-.207-2.808-.436-2.817-.47-2.817-.47-2.808-.436-2.817-.47-2.824-.504-2.829-.538-2.833-.572-2.835-.604-2.835-.636-2.835-.793-2.768-.914-2.632-1-2.495-1.085-2.306-1.128-2.062-1.128-1.435-1.128-.878-.943-.394-.574-.312-.513-.233-.428-.159-.317-.081-.205-.028-.1 0 0M-2.905-2.179C-3.522-2.179-4.008-2.07-4.36-1.854-4.712-1.637-4.889-1.335-4.889-.948-4.889-.887-4.883-.817-4.871-.738-4.86-.66-4.843-.583-4.819-.508-4.69-.043-4.382 .347-3.893 .661-3.404 .976-2.805 1.169-2.095 1.241L-.421 1.415C-.265 1.432-.117 1.461 .021 1.502 .196 1.554 .33 1.628 .423 1.726 .515 1.822 .558 1.937 .554 2.066 .549 2.203 .487 2.308 .366 2.379 .196 2.478-.112 2.527-.56 2.527-.901 2.527-1.191 2.462-1.431 2.33-1.671 2.198-1.857 2.003-1.991 1.743H-3.865C-3.671 2.382-3.247 2.867-2.593 3.199-1.938 3.53-1.079 3.696-.014 3.696 .959 3.696 1.662 3.557 2.096 3.275 2.418 3.07 2.577 2.793 2.573 2.444 2.577 2.324 2.56 2.196 2.518 2.06L1.667-.983C1.598-1.229 1.577-1.419 1.604-1.551 1.632-1.683 1.713-1.774 1.847-1.825V-1.83L1.791-2.03H.718-.356V-2.025C-.389-1.807-.384-1.589-.343-1.374-1.12-1.911-1.976-2.179-2.905-2.179" fill="#f9fafb"/>
<path transform="matrix(1,0,0,-1,81.8086,177.4023)" d="M0 0C-.101-.355-.076-.619 .076-.789 .228-.961 .512-1.046 .927-1.046 1.434-1.046 1.862-.933 2.212-.705 2.563-.478 2.793-.162 2.903 .241L3.796 3.445H4.787 5.785L4.231-2.133H3.272 2.313L2.533-1.317C2.454-1.399 2.36-1.481 2.249-1.563 1.627-2.042 .868-2.281-.026-2.281-.839-2.281-1.425-2.094-1.784-1.718-2.015-1.475-2.13-1.167-2.13-.795-2.13-.604-2.098-.394-2.032-.164L-1.023 3.445H-.033 .964Z" fill="#f9fafb"/>
<path transform="matrix(1,0,0,-1,89.3086,171.998)" d="M0 0H.989 1.984L-.118-7.537H-1.106-2.103Z" fill="#f9fafb"/>
<path transform="matrix(1,0,0,-1,95.5977,178.0078)" d="M0 0C.381 .294 .653 .737 .819 1.328 .847 1.424 .868 1.52 .882 1.615 .896 1.711 .902 1.798 .902 1.877 .902 2.222 .778 2.489 .53 2.68 .282 2.869-.069 2.964-.523 2.964-1.123 2.964-1.614 2.814-1.997 2.516-2.38 2.216-2.656 1.766-2.827 1.164-2.851 1.072-2.87 .979-2.886 .888-2.901 .795-2.907 .71-2.903 .631-2.903 .289-2.779 .025-2.532-.161-2.284-.348-1.932-.44-1.474-.44-.872-.44-.381-.294 0 0M-4.124-1.104C-4.688-.724-4.974-.205-4.978 .451-4.978 .564-4.968 .691-4.946 .834-4.927 .976-4.897 1.111-4.86 1.241-4.606 2.146-4.06 2.866-3.218 3.399-2.377 3.933-1.364 4.199-.179 4.199 .794 4.199 1.563 4.006 2.127 3.62 2.692 3.233 2.974 2.709 2.974 2.046 2.974 1.93 2.963 1.8 2.939 1.656 2.917 1.513 2.887 1.375 2.85 1.241 2.601 .346 2.056-.364 1.214-.889 .373-1.414-.638-1.676-1.817-1.676-2.79-1.676-3.56-1.485-4.124-1.104" fill="#f9fafb"/>
<path transform="matrix(1,0,0,-1,106.1104,175.0801)" d="M0 0C-.506 0-.957-.154-1.354-.464-1.75-.773-2.019-1.181-2.162-1.687-2.193-1.799-2.218-1.91-2.234-2.02-2.25-2.129-2.258-2.227-2.258-2.313-2.258-2.657-2.145-2.924-1.916-3.111-1.688-3.3-1.367-3.394-.953-3.394-.441-3.394 .012-3.244 .408-2.945 .804-2.646 1.068-2.252 1.201-1.764 1.358-1.199 1.334-.765 1.126-.459 .918-.152 .543 0 0 0M-1.887-4.604C-2.647-4.604-3.244-4.424-3.676-4.063-4.106-3.702-4.322-3.202-4.322-2.563-4.322-2.409-4.307-2.236-4.277-2.043-4.247-1.85-4.207-1.659-4.156-1.471-3.936-.686-3.463-.031-2.739 .49-2.016 1.011-1.217 1.271-.341 1.271 .617 1.271 1.291 1.003 1.678 .467L1.713 .421 2.461 3.082H3.45 4.445L2.344-4.455H1.355 .359L.535-3.824C-.193-4.344-1.001-4.604-1.887-4.604" fill="#f9fafb"/>
<path transform="matrix(1,0,0,-1,114.9814,176.1621)" d="M0 0 .007 .195C.007 .517-.096 .755-.301 .91-.506 1.066-.817 1.144-1.236 1.144-1.766 1.144-2.205 .991-2.555 .688-2.758 .51-2.93 .28-3.072 0ZM-2.381-3.521C-3.363-3.521-4.115-3.35-4.639-3.007-5.162-2.663-5.424-2.168-5.424-1.522-5.42-1.386-5.405-1.238-5.383-1.081-5.359-.924-5.327-.766-5.285-.604-5.027 .321-4.51 1.047-3.732 1.569-2.957 2.092-2.008 2.354-.888 2.354 .058 2.354 .771 2.183 1.256 1.841 1.74 1.499 1.982 .997 1.982 .334 1.982 .17 1.968-.007 1.939-.194 1.911-.383 1.866-.577 1.805-.779L1.752-.958H-3.397L-3.412-1.03C-3.43-1.133-3.439-1.23-3.439-1.322-3.435-1.66-3.317-1.914-3.088-2.084-2.857-2.253-2.51-2.338-2.045-2.338-1.71-2.338-1.404-2.283-1.129-2.176-.852-2.068-.656-1.928-.542-1.753H1.471C1.12-2.297 .598-2.727-.096-3.045-.789-3.363-1.551-3.521-2.381-3.521" fill="#f9fafb"/>
<path transform="matrix(1,0,0,-1,124.0596,173.3418)" d="M0 0H-3.111L-2.911 .672-2.711 1.344H5.583L5.408 .672 5.234 0H2.119L.39-6.193H-.67-1.729Z" fill="#f9fafb"/>
<path transform="matrix(1,0,0,-1,134.083,171.6553)" d="M0 0 1.162-1.532H-.422L-1.078-.677-2.213-1.532H-3.83L-1.756 0H-.878ZM-.765-4.507-.758-4.312C-.758-3.99-.86-3.752-1.064-3.597-1.27-3.44-1.582-3.363-2-3.363-2.53-3.363-2.97-3.516-3.319-3.819-3.521-3.997-3.695-4.227-3.838-4.507ZM-3.146-8.028C-4.128-8.028-4.881-7.856-5.404-7.514-5.927-7.17-6.188-6.675-6.188-6.029-6.184-5.893-6.17-5.745-6.146-5.588-6.124-5.431-6.092-5.272-6.051-5.111-5.792-4.186-5.274-3.46-4.498-2.938-3.721-2.415-2.772-2.153-1.652-2.153-.707-2.153 .008-2.324 .491-2.666 .976-3.008 1.217-3.51 1.217-4.173 1.217-4.337 1.203-4.514 1.175-4.701 1.146-4.89 1.102-5.084 1.04-5.286L.987-5.465H-4.162L-4.176-5.537C-4.195-5.64-4.203-5.737-4.203-5.829-4.199-6.167-4.082-6.421-3.852-6.591-3.622-6.76-3.275-6.845-2.811-6.845-2.475-6.845-2.169-6.79-1.893-6.683-1.617-6.575-1.422-6.435-1.307-6.26H.705C.355-6.804-.166-7.233-.86-7.552-1.555-7.87-2.316-8.028-3.146-8.028" fill="#f9fafb"/>
<path transform="matrix(1,0,0,-1,136.5498,173.957)" d="M0 0H.963 1.928L1.706-.8 1.982-.569C2.609-.091 3.369 .148 4.264 .148 5.074 .148 5.662-.021 6.025-.361 6.39-.701 6.486-1.173 6.316-1.773L5.255-5.578H4.268 3.273L4.234-2.133C4.331-1.777 4.303-1.515 4.15-1.344 3.998-1.173 3.714-1.087 3.298-1.087 2.789-1.087 2.359-1.2 2.008-1.428 1.656-1.655 1.426-1.971 1.314-2.374L.428-5.578H-.561-1.557Z" fill="#f9fafb"/>
<path transform="matrix(1,0,0,-1,145.1768,171.9375)" d="M0 0H2.005L1.631-1.343H-.374ZM-.63-2.02H.359 1.355L-.201-7.598H-1.189-2.186Z" fill="#f9fafb"/>
<path transform="matrix(1,0,0,-1,151.6338,175.6289)" d="M0 0C0 .26-.084 .444-.25 .552-.416 .659-.703 .713-1.109 .713-1.482 .713-1.783 .67-2.012 .585-2.242 .499-2.377 .382-2.416 .231-2.453 .102-2.375-.01-2.181-.102-1.99-.191-1.638-.281-1.123-.374 .013-.579 .762-.808 1.126-1.061 1.406-1.249 1.547-1.498 1.547-1.81 1.547-1.922 1.529-2.044 1.492-2.174 1.33-2.751 .903-3.209 .21-3.547-.484-3.886-1.344-4.055-2.371-4.055-3.515-4.055-4.344-3.895-4.859-3.573-5.279-3.31-5.491-2.939-5.496-2.461L-5.461-2.122H-3.436C-3.481-2.402-3.384-2.61-3.143-2.745-2.902-2.88-2.504-2.947-1.95-2.947-1.587-2.947-1.288-2.897-1.055-2.796-.82-2.695-.678-2.557-.629-2.379-.592-2.242-.675-2.127-.878-2.035-1.084-1.942-1.467-1.847-2.028-1.748-3.134-1.557-3.862-1.338-4.214-1.092-4.471-.91-4.6-.671-4.6-.374-4.6-.258-4.582-.135-4.545-.005-4.389 .556-3.99 1-3.352 1.328-2.714 1.656-1.93 1.82-.998 1.82 .08 1.82 .867 1.667 1.359 1.359 1.752 1.116 1.947 .779 1.947 .35 1.947 .243 1.934 .127 1.908 0Z" fill="#f9fafb"/>
<path transform="matrix(1,0,0,-1,62.25,127.8725)" d="M0 0C.322 1.187 .237 1.779-.057 2.325-.278 2.733-.629 3.413-1.894 3.413-2.12 3.413-8.204 3.397-8.204 3.397-8.784 1.462-18.577-31.147-18.748-32.445-19.182-35.743-17.011-35.734-13.631-35.734-12.347-35.734-10.663-35.737-10.663-35.737-10.663-35.737-.013-.046 0 0" fill="#f9fafb" fill-rule="evenodd"/>
<path transform="matrix(1,0,0,-1,21.1299,156.7568)" d="M0 0C0 0 8.35 28.838 8.361 28.884 8.685 30.071 8.598 30.663 8.305 31.209 8.083 31.618 7.732 32.297 6.467 32.297 6.242 32.297 .156 32.281 .156 32.281-.424 30.346-10.216-2.263-10.386-3.561-10.82-6.858-8.649-6.869-5.269-6.85-5.149-6.85 16.111-6.842 16.111-6.842 16.111-6.842 17.648-2.338 17.244-1.323 16.861-.369 15.489-.083 13.904-.005 12.761 .044 0 0 0 0" fill="#f9fafb" fill-rule="evenodd"/>
<path transform="matrix(1,0,0,-1,142.626,135.8135)" d="M0 0C-.049-.302-.123-.634-.221-1-.803-3.044-1.951-4.575-3.639-5.563-5.263-6.515-7.484-6.997-10.241-6.997H-21.334L-17.846 5.502H-8.715C-5.787 5.502-3.688 5.184-2.298 4.53-.743 3.8 .078 2.553 .078 .924 .078 .635 .052 .324 0 0M10.145-1.028C10.323-.395 10.459 .233 10.55 .838 10.638 1.437 10.682 1.995 10.682 2.5 10.682 5.09 9.636 6.958 7.484 8.294 5.226 9.694 1.866 10.404-2.504 10.404H-25.423L-35.812-26.846-31.303-26.849C-30.771-26.849-28.933-26.775-27.58-25.824-25.911-24.65-25.5-22.607-25.496-22.587L-22.781-12.755H-9.502C-4.576-12.755-.259-11.655 3.333-9.485 6.867-7.351 9.159-4.505 10.145-1.028" fill="#f9fafb"/>
<path transform="matrix(1,0,0,-1,81.6289,131.1362)" d="M0 0C1.745 .942 3.976 1.419 6.627 1.419 9.966 1.419 12.274 .948 13.68-.025 14.938-.896 15.656-2.319 15.813-4.252L15.845-4.657C15.845-4.657 26.498-6.159 25.06 .751 24.526 3.311 21.166 5.034 18.945 5.812 15.843 6.897 12.452 7.148 9.19 7.148 2.902 7.148-2.379 6.071-6.507 3.946-10.584 1.848-13.174-1.101-14.208-4.817-14.483-5.803-14.622-6.71-14.622-7.51-14.622-9.444-13.876-10.887-12.351-11.915-10.155-13.49-5.295-14.924 2.097-16.179 6.271-16.885 8.891-17.561 10.107-18.249 11.489-19.017 11.977-20.284 11.515-21.917 11.077-23.593 9.719-24.918 7.479-25.857 2.748-27.837-5.464-27.562-9.483-23.986-10.895-22.73-10.389-19.444-10.389-19.444-10.389-19.444-13.844-18.469-16.004-18.952-19.409-19.71-20.947-23.122-19.608-26.171-17.244-31.552-10.145-32.682-4.993-32.896-4.058-32.934-3.121-32.945-2.187-32.945 4.494-32.945 10.068-31.879 14.375-29.779 18.679-27.706 21.373-24.807 22.38-21.169 22.703-20.045 22.868-19.004 22.868-18.073 22.868-16.186 22.202-14.774 20.846-13.762 18.843-12.179 14.353-10.785 7.495-9.616 2.779-8.825-.187-8.119-1.581-7.452-3.596-6.541-3.672-5.113-3.378-4.067-2.927-2.335-1.791-.967 0 0" fill="#f9fafb"/>
</g>
</g>
</svg>
