<svg xmlns="http://www.w3.org/2000/svg" xmlns:xlink="http://www.w3.org/1999/xlink" xmlns:inkscape="http://www.inkscape.org/namespaces/inkscape" version="1.1" width="163.998" height="188.666" viewBox="0 0 163.998 188.666">
<defs>
<clipPath id="clip_1">
<path transform="matrix(1,0,0,-1,0,188.666)" d="M0 188.666H163.998V0H0Z"/>
</clipPath>
</defs>
<g inkscape:groupmode="layer" inkscape:label="Layer 1">
<g clip-path="url(#clip_1)">
<path transform="matrix(1,0,0,-1,163.998,174.6914)" d="M0 0C0-7.719-6.346-13.975-14.172-13.975H-149.826C-157.652-13.975-163.998-7.719-163.998 0V160.717C-163.998 168.435-157.652 174.691-149.826 174.691H-14.172C-6.346 174.691 0 168.435 0 160.717Z" fill="#1d3a68"/>
<path transform="matrix(1,0,0,-1,133.1035,63.043)" d="M0 0C-3.527 .184-6.533-2.527-6.717-6.052-6.9-9.577-4.191-12.584-.668-12.768 2.857-12.952 5.865-10.242 6.049-6.717 6.232-3.191 3.523-.185 0 0" fill="#29aae1"/>
<path transform="matrix(1,0,0,-1,123.1309,95.1611)" d="M0 0C0 0 1.391 .876 2.213 1.466 3.033 2.056 4.586 3.079 4.855 3.698 5.125 4.316 5.848 6.018 5.123 5.819 4.404 5.618 .623 2.892-1.158 2.036-2.939 1.182-4.086 .45-4.086 .45-4.086 .45-5.594 .291-6.387 .253-8.246 .167-10.188 .47-12.041 .604-13.15 .685-14.293 .698-15.393 .854-16.262 .978-16.236 1.285-16.822 1.688-17.547 2.184-18.047 2.446-18.945 2.827-20.361 3.429-21.775 4.038-23.189 4.644-24.703 5.292-29.229 8.333-30.502 6.093L-36.131 10.259-33.812 11.974-36.95 15.27C-38.992 13.843-40.832 12.559-40.832 12.559-40.832 12.559-44.334 15.11-53.074 15.725-54.34 16.7-55.619 17.659-56.873 18.646-57.684 19.282-58.588 19.859-59.354 20.546-60.621 21.685-61.221 23.559-62.037 25.024-62.674 26.171-63.313 27.315-63.949 28.461-64.227 28.966-63.467 30.245-63.295 30.736-62.99 31.61-62.844 32.849-62.258 33.589-61.836 34.118-61.42 35.243-61.42 35.243-61.42 35.243-59.904 37.062-58.891 38.312-57.877 39.563-55.883 43.726-55.789 45.5-55.789 45.5-54.758 47.105-54.467 48.157-54.174 49.209-53.699 53.807-53.91 54.292-54.121 54.777-54.514 54.087-54.65 53.737-54.607 53.849-54.91 54.728-54.873 55.055-54.686 56.677-54.336 58.321-54.244 60.005-54.184 61.145-54.563 62.092-54.393 63.202-54.203 64.419-53.986 65.366-54.863 66.503-55.613 67.476-55.797 67.198-56.02 68.358-56.309 69.86-56.4 69.778-57.891 69.998-58.457 70.081-58.855 70.042-59.379 70.321-59.785 70.538-59.912 71.103-60.391 71.243-60.727 71.341-61.043 71.08-61.35 71.063-62.428 71.008-62.215 71.465-63.209 71.886-63.814 72.141-64.92 72.101-65.578 71.95-66.467 71.745-66.867 70.87-67.537 70.634-68.215 70.396-69.867 70.747-70.607 70.835-71.518 70.944-72.064 70.925-72.949 70.81-73.619 70.722-74.256 71.101-74.846 71.042-75.84 70.94-75.082 70.734-74.891 70.128-74.697 69.518-74.711 69.461-75.207 68.819-75.631 68.269-76.537 67.95-76.641 67.173-76.707 66.673-76.512 66.085-76.529 65.567-76.57 64.508-76.926 63.486-77.01 62.432-75.934 61.843-76.234 60.129-76.338 59.146-76.455 58.05-76.285 56.324-76.664 55.354-76.541 55.663-77.627 55.436-77.703 55.401-78.025 55.256-78.359 54.651-78.486 54.339-78.787 53.593-78.662 52.698-78.514 51.935-78.307 50.854-76.014 47.022-78.586 47.131-78.822 46.271-78.602 45.37-77.982 44.743-78.377 44.681-78.955 44.261-79.26 44.179-78.609 44.351-77.65 43.847-76.906 43.976-76.969 43.313-79.238 41.392-79.84 41.182-79.84 41.182-85.756 39.119-88.262 36.523-90.768 33.927-93.055 30.965-93.055 30.965-93.055 30.965-95.832 25.419-96.369 24.263-96.902 23.104-99.197 20.024-100.199 19.009-101.199 17.995-103.645 14.329-104.09 12.573-104.537 10.819-106.791 6.196-107.104 4.79-107.414 3.383-109.027-.326-109.121-2.102-109.391-7.271-108.795-12.858-109.852-17.938-110.461-20.864-110.898-23.599-111.965-27.234-106.143-24.788-98.975-21.505-93.285-19.263-90.873-18.313-75.313-15.845-74.637-14.811-71.668-10.267-67.016-2.382-65.842 2.759-62.801 2.819-59.746 2.872-56.707 2.901-55.408 2.915-54.707 2.067-53.633 1.544-50.162-.143-45.168-.33-41.395-1.124-38.695-1.692-35.994-2.269-33.297-2.849L-32.75-3.706C-30.77-4.12-28.791-4.54-26.809-4.952-25.451-5.234-24.094-5.515-22.734-5.795-20.873-6.179-19.65-6.149-17.859-6.853-17.162-7.127-9.574-7.048-9.574-7.048-9.574-7.048-7.369-7.992-6.447-8.515-5.527-9.036-1.637-9.477-1.383-9.134-1.129-8.792-1.229-8.431-2.273-8.021-2.787-7.819-7.113-5.507-6.742-5.062-6.363-4.607-5.275-4.189-4.088-4.134-2.896-4.077-1.959-4.244-1-4.057-.043-3.87 .313-3.889 1.623-3.72 2.938-3.55 4.125-3.494 4.387-3.032 4.596-2.667 4.746-2.257 4.941-1.899 4.844-2.077 6.385-1.838 6.527-1.757 7.016-1.481 7.404-.958 7.695-.493 7.193-.137 6.451-.099 5.848-.067 4.348 .011 0 0 0 0" fill="#29aae1"/>
<path transform="matrix(1,0,0,-1,147.5732,42.6474)" d="M0 0C-4.985-6.425-23.818-19.585-23.818-19.585-26.427-21.247-29.115-22.899-31.979-24.093-32.745-24.412-36.286-25.98-36.806-25.107-37.212-24.425-32.292-19.7-30.769-18.382-27.835-15.844-24.75-13.485-21.588-11.239-15.013-6.57-8.097-2.237-.938 1.495 1.185 2.131 0 0 0 0M-44.737-30.263-38.202-24.638C-40.187-27.06-37.571-26.846-37.571-26.846ZM1.173 3.887C-.284 5.415-3.634 3.952-3.634 3.952-12.06 1.466-28.601-12.435-28.601-12.435L-47.751-28.37C-47.751-28.37-54.765-34.007-55.022-33.989-55.281-33.972-56.326-34.031-56.326-34.031L-67.628-41.589-62.54-44.208-52.958-37.12-52.644-36.296C-51.874-35.503-44.907-31.487-43.033-30.704-41.16-29.921-29.138-24.231-29.138-24.231-12.458-15.021 .979-.911 .979-.911 3.519 2.038 1.173 3.887 1.173 3.887" fill="#29aae1"/>
<path transform="matrix(1,0,0,-1,147.5771,117.8877)" d="M0 0C0 0-60.179 34.831-139.481-5.777L-141.035-7.249C-61.397 26.39 2.748-.8 2.748-.8Z" fill="#f9fafb" fill-rule="evenodd"/>
<path transform="matrix(1,0,0,-1,15.7227,179.5351)" d="M0 0 2.002 7.178H3.011 4.02L2.374 1.279H7.185L6.994 .64 6.804 0Z" fill="#f9fafb"/>
<path transform="matrix(1,0,0,-1,25.2695,172.2988)" d="M0 0H1.909L1.554-1.279H-.356ZM-.6-1.924H.343 1.29L-.19-7.236H-1.133-2.081Z" fill="#f9fafb"/>
<path transform="matrix(1,0,0,-1,30.6084,175.2969)" d="M0 0C-.471 0-.889-.142-1.255-.425-1.621-.708-1.869-1.082-1.996-1.548-2.027-1.648-2.049-1.749-2.063-1.848-2.074-1.947-2.084-2.038-2.088-2.119-2.088-2.435-1.982-2.68-1.771-2.854-1.561-3.028-1.263-3.115-.877-3.115-.402-3.115 .018-2.979 .381-2.705 .746-2.432 .99-2.07 1.112-1.621 1.258-1.104 1.233-.704 1.04-.422 .847-.141 .5 0 0 0M-1.488-5.356C-.957-5.356-.535-5.256-.221-5.054 .093-4.852 .307-4.539 .421-4.116L.623-3.369C.531-3.47 .432-3.562 .326-3.643-.204-4.06-.86-4.268-1.642-4.268-2.414-4.268-3.019-4.101-3.455-3.768-3.893-3.434-4.112-2.972-4.117-2.383-4.117-2.256-4.105-2.114-4.08-1.958-4.057-1.802-4.022-1.647-3.979-1.494-3.764-.716-3.294-.07-2.57 .444-1.846 .959-1.045 1.216-.166 1.216 .641 1.216 1.205 .993 1.525 .547 1.596 .452 1.654 .345 1.703 .225L1.94 1.074H3.721L2.311-3.96C2.082-4.793 1.627-5.411 .945-5.813 .262-6.215-.672-6.416-1.857-6.416-2.861-6.416-3.617-6.278-4.121-6.004-4.627-5.729-4.839-5.335-4.76-4.824H-2.705C-2.705-5.02-2.614-5.157-2.432-5.236-2.25-5.316-1.936-5.356-1.488-5.356" fill="#f9fafb"/>
<path transform="matrix(1,0,0,-1,38.2969,177.6015)" d="M0 0 .177 .645C-.003 .569-.2 .515-.415 .479L-1.179 .366C-1.681 .291-2.038 .197-2.256 .083-2.474-.031-2.612-.197-2.675-.415-2.683-.447-2.683-.447-2.675-.415-2.683-.447-2.69-.48-2.694-.513-2.698-.545-2.7-.576-2.7-.605-2.7-.755-2.636-.871-2.507-.952-2.377-1.033-2.196-1.074-1.963-1.074-1.366-1.074-.837-.898-.376-.547-.296-.488-.222-.407-.151-.303-.077-.195-.026-.095 0 0M-2.767-2.075C-3.354-2.075-3.817-1.972-4.152-1.766-4.487-1.559-4.655-1.271-4.655-.903-4.655-.845-4.65-.778-4.64-.703-4.628-.628-4.612-.555-4.59-.483-4.467-.041-4.173 .33-3.708 .63-3.242 .93-2.671 1.113-1.995 1.182L-.401 1.348C-.252 1.364-.112 1.392 .021 1.431 .187 1.479 .313 1.551 .401 1.643 .489 1.736 .532 1.844 .527 1.968 .522 2.098 .464 2.197 .349 2.266 .187 2.36-.107 2.407-.533 2.407-.858 2.407-1.135 2.345-1.362 2.219-1.591 2.094-1.769 1.907-1.896 1.66H-3.681C-3.497 2.269-3.093 2.731-2.47 3.047-1.846 3.362-1.026 3.521-.013 3.521 .913 3.521 1.583 3.387 1.995 3.12 2.304 2.924 2.454 2.66 2.45 2.328 2.454 2.214 2.437 2.092 2.397 1.962L1.587-.937C1.521-1.171 1.502-1.352 1.528-1.477 1.555-1.603 1.632-1.689 1.759-1.738V-1.743L1.706-1.934H.684-.339V-1.929C-.37-1.721-.366-1.514-.326-1.309-1.067-1.819-1.882-2.075-2.767-2.075" fill="#f9fafb"/>
<path transform="matrix(1,0,0,-1,47.1602,176.8447)" d="M0 0H2.542L2.106 2.905H2.112ZM1.444 4.487H2.61 3.775L5.132-2.69H4.032 2.925L2.706-1.187H-.878L-1.954-2.69H-3.021-4.095Z" fill="#f9fafb"/>
<path transform="matrix(1,0,0,-1,54.792,172.3574)" d="M0 0H.942 1.891L-.111-7.178H-1.053-2.002Z" fill="#f9fafb"/>
<path transform="matrix(1,0,0,-1,59.4717,178.5244)" d="M0 0C.479 0 .905 .145 1.279 .435 1.652 .725 1.904 1.106 2.037 1.582 2.067 1.687 2.092 1.791 2.109 1.897 2.127 2.003 2.133 2.102 2.129 2.192 2.129 2.521 2.021 2.776 1.809 2.956 1.596 3.138 1.294 3.228 .902 3.228 .438 3.228 .016 3.083-.362 2.793-.74 2.503-.99 2.132-1.113 1.68H-1.107C-1.261 1.143-1.24 .729-1.047 .437-.854 .146-.505 0 0 0M-2.232 4.302H-1.344-.457L-.662 3.54-.518 3.652C.193 4.18 .975 4.443 1.826 4.443 2.555 4.443 3.123 4.279 3.533 3.95 3.944 3.621 4.149 3.166 4.149 2.583 4.145 2.449 4.131 2.3 4.106 2.134 4.082 1.968 4.049 1.805 4.004 1.646 3.781 .845 3.309 .179 2.586-.354 1.865-.886 1.072-1.152 .208-1.152-.66-1.152-1.275-.901-1.635-.4L-1.648-.381-2.403-3.091H-3.346-4.293Z" fill="#f9fafb"/>
<path transform="matrix(1,0,0,-1,65.377,172.3574)" d="M0 0H.942 1.89L1.179-2.544 1.363-2.407C1.96-1.951 2.686-1.724 3.538-1.724 4.312-1.724 4.872-1.886 5.218-2.209 5.565-2.533 5.657-2.981 5.495-3.555L4.485-7.178H3.544 2.598L3.513-3.896C3.604-3.558 3.578-3.308 3.433-3.145 3.288-2.981 3.018-2.9 2.621-2.9 2.137-2.9 1.728-3.009 1.394-3.225 1.058-3.441 .838-3.742 .732-4.126L-.112-7.178H-1.054-2.002Z" fill="#f9fafb"/>
<path transform="matrix(1,0,0,-1,75.4639,177.6015)" d="M0 0 .177 .645C-.004 .569-.201 .515-.416 .479L-1.18 .366C-1.681 .291-2.039 .197-2.256 .083-2.475-.031-2.613-.197-2.675-.415-2.684-.447-2.684-.447-2.675-.415-2.684-.447-2.69-.48-2.694-.513-2.699-.545-2.701-.576-2.701-.605-2.701-.755-2.637-.871-2.507-.952-2.377-1.033-2.196-1.074-1.963-1.074-1.366-1.074-.837-.898-.376-.547-.297-.488-.223-.407-.152-.303-.077-.195-.027-.095 0 0M-2.768-2.075C-3.355-2.075-3.817-1.972-4.152-1.766-4.488-1.559-4.656-1.271-4.656-.903-4.656-.845-4.65-.778-4.64-.703-4.629-.628-4.612-.555-4.59-.483-4.467-.041-4.174 .33-3.708 .63-3.242 .93-2.672 1.113-1.996 1.182L-.402 1.348C-.252 1.364-.112 1.392 .02 1.431 .187 1.479 .313 1.551 .401 1.643 .489 1.736 .531 1.844 .527 1.968 .522 2.098 .463 2.197 .349 2.266 .187 2.36-.107 2.407-.533 2.407-.858 2.407-1.135 2.345-1.363 2.219-1.592 2.094-1.77 1.907-1.896 1.66H-3.682C-3.497 2.269-3.094 2.731-2.47 3.047-1.846 3.362-1.027 3.521-.014 3.521 .913 3.521 1.582 3.387 1.995 3.12 2.303 2.924 2.454 2.66 2.449 2.328 2.454 2.214 2.437 2.092 2.396 1.962L1.587-.937C1.521-1.171 1.502-1.352 1.527-1.477 1.555-1.603 1.631-1.689 1.758-1.738V-1.743L1.705-1.934H.684-.34V-1.929C-.371-1.721-.366-1.514-.326-1.309-1.068-1.819-1.882-2.075-2.768-2.075" fill="#f9fafb"/>
<path transform="matrix(1,0,0,-1,78.5889,174.2226)" d="M0 0H1.053 2.105L2.504-3.916H2.508L5.146 0H6.146 7.146L3.082-5.313H2.095 1.1Z" fill="#f9fafb"/>
<path transform="matrix(1,0,0,-1,86.7266,172.2988)" d="M0 0H1.909L1.554-1.279H-.356ZM-.6-1.924H.343 1.29L-.19-7.236H-1.133-2.081Z" fill="#f9fafb"/>
<path transform="matrix(1,0,0,-1,89.7197,172.3574)" d="M0 0H.942 1.891L-.111-7.178H-1.053-2.002Z" fill="#f9fafb"/>
<path transform="matrix(1,0,0,-1,92.793,172.3574)" d="M0 0H.942 1.89L-.112-7.178H-1.054-2.002Z" fill="#f9fafb"/>
<path transform="matrix(1,0,0,-1,99.042,176.3222)" d="M0 0 .006 .186C.006 .491-.092 .719-.286 .867-.481 1.015-.778 1.089-1.178 1.089-1.682 1.089-2.1 .944-2.434 .654-2.627 .485-2.791 .267-2.927 0ZM-2.268-3.354C-3.203-3.354-3.92-3.191-4.418-2.863-4.916-2.537-5.166-2.065-5.166-1.45-5.161-1.32-5.148-1.18-5.126-1.03-5.104-.881-5.073-.729-5.034-.576-4.788 .306-4.295 .996-3.556 1.494-2.816 1.992-1.912 2.241-.846 2.241 .055 2.241 .734 2.078 1.196 1.753 1.657 1.428 1.888 .949 1.888 .317 1.888 .161 1.874-.007 1.848-.186 1.82-.364 1.777-.55 1.719-.742L1.668-.913H-3.236L-3.249-.981C-3.268-1.079-3.275-1.172-3.275-1.26-3.271-1.582-3.16-1.824-2.94-1.984-2.722-2.146-2.391-2.227-1.948-2.227-1.629-2.227-1.338-2.176-1.074-2.072-.813-1.971-.625-1.836-.516-1.67H1.4C1.066-2.188 .569-2.598-.092-2.9-.752-3.203-1.478-3.354-2.268-3.354" fill="#f9fafb"/>
<path transform="matrix(1,0,0,-1,108.0576,175.292)" d="M0 0C-.482 0-.912-.147-1.29-.442-1.667-.736-1.924-1.125-2.06-1.606-2.09-1.714-2.113-1.819-2.129-1.924-2.145-2.028-2.152-2.121-2.152-2.202-2.152-2.531-2.043-2.785-1.826-2.964-1.609-3.143-1.303-3.232-.908-3.232-.422-3.232 .01-3.09 .387-2.806 .764-2.521 1.017-2.146 1.144-1.68 1.293-1.143 1.27-.729 1.071-.437 .874-.146 .517 0 0 0M-1.797-4.385C-2.522-4.385-3.09-4.213-3.501-3.87-3.912-3.526-4.117-3.05-4.117-2.441-4.117-2.295-4.104-2.13-4.074-1.946-4.046-1.762-4.008-1.58-3.959-1.401-3.748-.652-3.299-.03-2.609 .466-1.92 .963-1.159 1.211-.325 1.211 .588 1.211 1.229 .955 1.597 .444L1.63 .4 2.344 2.935H3.285 4.233L2.231-4.243H1.289 .342L.509-3.643C-.186-4.138-.954-4.385-1.797-4.385" fill="#f9fafb"/>
<path transform="matrix(1,0,0,-1,116.5049,176.3222)" d="M0 0 .008 .186C.008 .491-.09 .719-.285 .867-.48 1.015-.777 1.089-1.176 1.089-1.681 1.089-2.1 .944-2.433 .654-2.625 .485-2.789 .267-2.926 0ZM-2.268-3.354C-3.202-3.354-3.919-3.191-4.417-2.863-4.916-2.537-5.164-2.065-5.164-1.45-5.16-1.32-5.146-1.18-5.125-1.03-5.104-.881-5.072-.729-5.033-.576-4.787 .306-4.295 .996-3.555 1.494-2.814 1.992-1.912 2.241-.845 2.241 .056 2.241 .736 2.078 1.197 1.753 1.658 1.428 1.889 .949 1.889 .317 1.889 .161 1.875-.007 1.848-.186 1.82-.364 1.778-.55 1.72-.742L1.67-.913H-3.234L-3.248-.981C-3.266-1.079-3.274-1.172-3.274-1.26-3.271-1.582-3.158-1.824-2.939-1.984-2.721-2.146-2.39-2.227-1.947-2.227-1.628-2.227-1.336-2.176-1.074-2.072-.811-1.971-.625-1.836-.516-1.67H1.401C1.067-2.188 .57-2.598-.09-2.9-.752-3.203-1.477-3.354-2.268-3.354" fill="#f9fafb"/>
<path transform="matrix(1,0,0,-1,125.1514,173.6367)" d="M0 0H-2.963L-2.772 .64-2.582 1.279H5.316L5.151 .64 4.985 0H2.018L.371-5.898H-.638-1.646Z" fill="#f9fafb"/>
<path transform="matrix(1,0,0,-1,134.6982,172.0303)" d="M0 0 1.106-1.46H-.402L-1.027-.645-2.107-1.46H-3.648L-1.673 0H-.836ZM-.729-4.292-.723-4.106C-.723-3.801-.82-3.573-1.015-3.425-1.21-3.277-1.507-3.203-1.906-3.203-2.41-3.203-2.828-3.348-3.162-3.638-3.355-3.807-3.52-4.025-3.655-4.292ZM-2.996-7.646C-3.932-7.646-4.648-7.483-5.146-7.155-5.645-6.829-5.895-6.357-5.895-5.742-5.89-5.612-5.877-5.472-5.854-5.322-5.832-5.173-5.802-5.021-5.763-4.868-5.517-3.986-5.023-3.296-4.284-2.798-3.545-2.3-2.641-2.051-1.574-2.051-.674-2.051 .006-2.214 .468-2.539 .929-2.864 1.159-3.343 1.159-3.975 1.159-4.131 1.146-4.299 1.119-4.478 1.092-4.656 1.049-4.842 .99-5.034L.939-5.205H-3.965L-3.978-5.273C-3.996-5.371-4.004-5.464-4.004-5.552-4-5.874-3.889-6.116-3.669-6.276-3.45-6.438-3.119-6.519-2.677-6.519-2.357-6.519-2.066-6.468-1.803-6.364-1.541-6.263-1.354-6.128-1.244-5.962H.672C.338-6.479-.159-6.89-.82-7.192-1.48-7.495-2.206-7.646-2.996-7.646" fill="#f9fafb"/>
<path transform="matrix(1,0,0,-1,137.0459,174.2226)" d="M0 0H.919 1.837L1.627-.762 1.89-.542C2.486-.086 3.211 .142 4.062 .142 4.834 .142 5.394-.021 5.74-.344 6.087-.668 6.179-1.116 6.017-1.689L5.006-5.313H4.065 3.119L4.033-2.031C4.126-1.692 4.1-1.442 3.954-1.279 3.809-1.116 3.539-1.035 3.143-1.035 2.658-1.035 2.248-1.144 1.914-1.359 1.579-1.576 1.359-1.877 1.254-2.261L.409-5.313H-.533-1.48Z" fill="#f9fafb"/>
<path transform="matrix(1,0,0,-1,145.2627,172.2988)" d="M0 0H1.91L1.555-1.279H-.355ZM-.6-1.924H.343 1.291L-.19-7.236H-1.133-2.08Z" fill="#f9fafb"/>
<path transform="matrix(1,0,0,-1,151.4111,175.8144)" d="M0 0C0 .247-.078 .422-.236 .525-.395 .627-.668 .679-1.056 .679-1.41 .679-1.696 .638-1.915 .557-2.134 .476-2.262 .363-2.3 .22-2.335 .096-2.26-.01-2.076-.098-1.895-.183-1.559-.269-1.068-.356 .014-.552 .727-.77 1.074-1.011 1.342-1.189 1.475-1.428 1.475-1.724 1.475-1.831 1.457-1.946 1.422-2.07 1.269-2.62 .861-3.057 .201-3.379-.459-3.701-1.279-3.862-2.258-3.862-3.346-3.862-4.136-3.709-4.627-3.403-5.027-3.152-5.229-2.8-5.232-2.344L-5.2-2.021H-3.271C-3.314-2.288-3.222-2.486-2.992-2.615-2.762-2.743-2.384-2.808-1.855-2.808-1.51-2.808-1.226-2.76-1.002-2.664-.779-2.567-.645-2.435-.598-2.266-.563-2.136-.641-2.026-.834-1.938-1.03-1.851-1.396-1.76-1.931-1.665-2.983-1.482-3.677-1.274-4.012-1.04-4.258-.867-4.38-.64-4.38-.356-4.38-.246-4.362-.129-4.327-.005-4.178 .529-3.799 .952-3.191 1.265-2.583 1.577-1.836 1.733-.949 1.733 .078 1.733 .826 1.587 1.297 1.294 1.67 1.063 1.855 .742 1.855 .332 1.855 .231 1.844 .12 1.818 0Z" fill="#f9fafb"/>
<path transform="matrix(1,0,0,-1,74.4219,151.9219)" d="M0 0C4.475 6.57 9.068 13.033 13.656 19.5 14.596 13.266 15.396 6.494 16.137 .084 10.758 .055 5.379 .029 0 0M22.424 25.271C22.342 25.772 21.992 27.494 21.898 28.061L11.107 28.109C11.107 28.109 10.205 27.99 9.936 27.908 9.521 27.781 9.076 27.627 8.813 27.48 7.186 26.564-22.494-15.197-22.494-15.197-22.494-15.197-20.451-15.188-19.529-15.184-16.297-15.164-13.268-15.223-11.264-14.484-9.131-13.699-7.662-10.801-6.381-9.021-5.988-8.48-5.201-7.32-4.807-7.201-4.238-7.039-3.02-7.193-2.092-7.188 3.57-7.156 8.814-7.131 14.377-7.102 15.135-7.098 16.857-6.949 17.09-7.16 17.193-7.252 17.205-8.273 17.262-8.684 17.473-10.246 17.619-12.047 18.191-13.096 19.555-15.596 24.277-14.811 29.049-14.924 26.814-1.498 24.627 11.633 22.424 25.271" fill="#f9fafb" fill-rule="evenodd"/>
<path transform="matrix(1,0,0,-1,111.457,123.7988)" d="M0 0C-.463-.092-.891-.218-1.258-.386-3.656-1.494-4.793-7.785-4.793-7.785L9.031-7.766C9.031-7.766 .699-35.924 .287-37.613-.121-39.301-.242-40.949 .66-41.734 1.691-42.639 4.76-42.656 6.951-42.645 7.502-42.643 9.506-42.629 9.506-42.629 9.506-42.629 9.936-41.016 10.107-40.453 13.25-30.131 19.695-7.785 19.695-7.785 19.697-7.785 28.717-7.805 28.717-7.805 28.717-7.805 29.141-7.793 29.26-7.785 30.275-7.713 31.215-7.533 31.738-7.243 33.592-6.219 34.875-2.717 35.844 .17L1.57 .174C1.57 .174 .357 .075 0 0" fill="#f9fafb" fill-rule="evenodd"/>
<path transform="matrix(1,0,0,-1,30.3965,159.5957)" d="M0 0C0 0 9.494 32.793 9.508 32.846 9.875 34.195 9.777 34.869 9.443 35.49 9.191 35.954 8.793 36.727 7.354 36.727 7.098 36.727 .178 36.709 .178 36.709-.482 34.508-11.617-2.572-11.811-4.049-12.305-7.799-9.836-7.811-5.992-7.789-5.855-7.789 18.32-7.779 18.32-7.779 18.32-7.779 20.068-2.658 19.609-1.504 19.174-.42 17.613-.094 15.811-.006 14.51 .051 0 0 0 0" fill="#f9fafb" fill-rule="evenodd"/>
</g>
</g>
</svg>
