<svg xmlns="http://www.w3.org/2000/svg" xmlns:xlink="http://www.w3.org/1999/xlink" xmlns:inkscape="http://www.inkscape.org/namespaces/inkscape" version="1.1" width="595.275" height="841.89" viewBox="0 0 595.275 841.89">
<defs>
<clipPath id="clip_1">
<path transform="matrix(1,0,0,-1,0,841.89)" d="M0 841.89H595.275V0H0Z"/>
</clipPath>
</defs>
<g inkscape:groupmode="layer" inkscape:label="Layer 1">
<g clip-path="url(#clip_1)">
<path transform="matrix(1,0,0,-1,223.3877,308.8871)" d="M0 0C-7.263 0-13.172-5.82-13.172-12.975V-173.691C-13.172-180.846-7.263-186.666 0-186.666H135.654C142.917-186.666 148.826-180.846 148.826-173.691V-12.975C148.826-5.82 142.917 0 135.654 0ZM135.654-188.666H0C-8.366-188.666-15.172-181.948-15.172-173.691V-12.975C-15.172-4.718-8.366 2 0 2H135.654C144.021 2 150.826-4.718 150.826-12.975V-173.691C150.826-181.948 144.021-188.666 135.654-188.666" fill="#bbbdbf"/>
<path transform="matrix(1,0,0,-1,343.3203,370.93003)" d="M0 0C-3.527 .184-6.533-2.527-6.717-6.052-6.9-9.577-4.191-12.584-.668-12.768 2.857-12.952 5.865-10.242 6.049-6.717 6.232-3.191 3.523-.185 0 0" fill="#29aae1"/>
<path transform="matrix(1,0,0,-1,333.3477,403.04823)" d="M0 0C0 0 1.391 .876 2.213 1.466 3.033 2.056 4.586 3.079 4.855 3.698 5.125 4.316 5.848 6.018 5.123 5.819 4.404 5.618 .623 2.892-1.158 2.036-2.939 1.182-4.086 .45-4.086 .45-4.086 .45-5.594 .291-6.387 .253-8.246 .167-10.188 .47-12.041 .604-13.15 .685-14.293 .698-15.393 .854-16.262 .978-16.236 1.285-16.822 1.688-17.547 2.184-18.047 2.446-18.945 2.827-20.361 3.429-21.775 4.038-23.189 4.644-24.703 5.292-29.229 8.333-30.502 6.093L-36.131 10.259-33.812 11.974-36.95 15.27C-38.992 13.843-40.832 12.559-40.832 12.559-40.832 12.559-44.334 15.11-53.074 15.725-54.34 16.7-55.619 17.659-56.873 18.646-57.684 19.282-58.588 19.859-59.354 20.546-60.621 21.685-61.221 23.559-62.037 25.024-62.674 26.171-63.313 27.315-63.949 28.461-64.227 28.966-63.467 30.245-63.295 30.736-62.99 31.61-62.844 32.849-62.258 33.589-61.836 34.118-61.42 35.243-61.42 35.243-61.42 35.243-59.904 37.062-58.891 38.312-57.877 39.563-55.883 43.726-55.789 45.5-55.789 45.5-54.758 47.105-54.467 48.157-54.174 49.209-53.699 53.807-53.91 54.292-54.121 54.777-54.514 54.087-54.65 53.737-54.607 53.849-54.91 54.728-54.873 55.055-54.686 56.677-54.336 58.321-54.244 60.005-54.184 61.145-54.563 62.092-54.393 63.202-54.203 64.419-53.986 65.366-54.863 66.503-55.613 67.476-55.797 67.198-56.02 68.358-56.309 69.86-56.4 69.778-57.891 69.998-58.457 70.081-58.855 70.042-59.379 70.321-59.785 70.538-59.912 71.103-60.391 71.243-60.727 71.341-61.043 71.08-61.35 71.063-62.428 71.008-62.215 71.465-63.209 71.886-63.814 72.141-64.92 72.101-65.578 71.95-66.467 71.745-66.867 70.87-67.537 70.634-68.215 70.396-69.867 70.747-70.607 70.835-71.518 70.944-72.064 70.925-72.949 70.81-73.619 70.722-74.256 71.101-74.846 71.042-75.84 70.94-75.082 70.734-74.891 70.128-74.697 69.518-74.711 69.461-75.207 68.819-75.631 68.269-76.537 67.95-76.641 67.173-76.707 66.673-76.512 66.085-76.529 65.567-76.57 64.508-76.926 63.486-77.01 62.432-75.934 61.843-76.234 60.129-76.338 59.146-76.455 58.05-76.285 56.324-76.664 55.354-76.541 55.663-77.627 55.436-77.703 55.401-78.025 55.256-78.359 54.651-78.486 54.339-78.787 53.593-78.662 52.698-78.514 51.935-78.307 50.854-76.014 47.022-78.586 47.131-78.822 46.271-78.602 45.37-77.982 44.743-78.377 44.681-78.955 44.261-79.26 44.179-78.609 44.351-77.65 43.847-76.906 43.976-76.969 43.313-79.238 41.392-79.84 41.182-79.84 41.182-85.756 39.119-88.262 36.523-90.768 33.927-93.055 30.965-93.055 30.965-93.055 30.965-95.832 25.419-96.369 24.263-96.902 23.104-99.197 20.024-100.199 19.009-101.199 17.995-103.645 14.329-104.09 12.573-104.537 10.819-106.791 6.196-107.104 4.79-107.414 3.383-109.027-.326-109.121-2.102-109.391-7.271-108.795-12.858-109.852-17.938-110.461-20.864-110.898-23.599-111.965-27.234-106.143-24.788-98.975-21.505-93.285-19.263-90.873-18.313-75.313-15.845-74.637-14.811-71.668-10.267-67.016-2.382-65.842 2.759-62.801 2.819-59.746 2.872-56.707 2.901-55.408 2.915-54.707 2.067-53.633 1.544-50.162-.143-45.168-.33-41.395-1.124-38.695-1.692-35.994-2.269-33.297-2.849L-32.75-3.706C-30.77-4.12-28.791-4.54-26.809-4.952-25.451-5.234-24.094-5.515-22.734-5.795-20.873-6.179-19.65-6.149-17.859-6.853-17.162-7.127-9.574-7.048-9.574-7.048-9.574-7.048-7.369-7.992-6.447-8.515-5.527-9.036-1.637-9.477-1.383-9.134-1.129-8.792-1.229-8.431-2.273-8.021-2.787-7.819-7.113-5.507-6.742-5.062-6.363-4.607-5.275-4.189-4.088-4.134-2.896-4.077-1.959-4.244-1-4.057-.043-3.87 .313-3.889 1.623-3.72 2.938-3.55 4.125-3.494 4.387-3.032 4.596-2.667 4.746-2.257 4.941-1.899 4.844-2.077 6.385-1.838 6.527-1.757 7.016-1.481 7.404-.958 7.695-.493 7.193-.137 6.451-.099 5.848-.067 4.348 .011 0 0 0 0" fill="#29aae1"/>
<path transform="matrix(1,0,0,-1,357.79,350.53453)" d="M0 0C-4.985-6.425-23.818-19.585-23.818-19.585-26.427-21.247-29.115-22.899-31.979-24.093-32.745-24.412-36.286-25.98-36.806-25.107-37.212-24.425-32.292-19.7-30.769-18.382-27.835-15.844-24.75-13.485-21.588-11.239-15.013-6.57-8.097-2.237-.938 1.495 1.185 2.131 0 0 0 0M-44.737-30.263-38.202-24.638C-40.187-27.06-37.571-26.846-37.571-26.846ZM1.173 3.887C-.284 5.415-3.634 3.952-3.634 3.952-12.06 1.466-28.601-12.435-28.601-12.435L-47.751-28.37C-47.751-28.37-54.765-34.007-55.022-33.989-55.281-33.972-56.326-34.031-56.326-34.031L-67.628-41.589-62.54-44.208-52.958-37.12-52.644-36.296C-51.874-35.503-44.907-31.487-43.033-30.704-41.16-29.921-29.138-24.231-29.138-24.231-12.458-15.021 .979-.911 .979-.911 3.519 2.038 1.173 3.887 1.173 3.887" fill="#29aae1"/>
<path transform="matrix(1,0,0,-1,360.542,426.57463)" d="M0 0C0 0-1.408 .595-4.049 1.497-3.197 1.058-2.748 .8-2.748 .8Z" fill="#1f2e60" fill-rule="evenodd"/>
<path transform="matrix(1,0,0,-1,356.4932,425.0775)" d="M0 0C-9.124 4.705-65.647 30.667-138.181-6.475L-139.734-7.946C-71.854 20.726-15.24 5.208 0 0" fill="#1f2e60" fill-rule="evenodd"/>
<path transform="matrix(1,0,0,-1,229.9585,479.74644)" d="M0 0H-1.009-2.018L-4.02-7.178H2.784L2.975-6.538 3.166-5.898H-1.645Z" fill="#1f2e60" fill-rule="evenodd"/>
<path transform="matrix(1,0,0,-1,235.8281,481.61174)" d="M0 0H-.942L-2.423-5.313H-1.475-.533L.948 0Z" fill="#1f2e60" fill-rule="evenodd"/>
<path transform="matrix(1,0,0,-1,237.04,480.9671)" d="M0 0 .355 1.279H-1.554L-1.91 0Z" fill="#1f2e60" fill-rule="evenodd"/>
<path transform="matrix(1,0,0,-1,241.937,484.307)" d="M0 0C-.123-.449-.366-.811-.731-1.084-1.095-1.357-1.515-1.494-1.989-1.494-2.375-1.494-2.673-1.407-2.884-1.232-3.095-1.059-3.2-.813-3.2-.498-3.196-.417-3.187-.326-3.174-.227-3.161-.128-3.139-.027-3.108 .073-2.981 .539-2.734 .913-2.367 1.196-2.001 1.479-1.583 1.621-1.113 1.621-.612 1.621-.266 1.48-.072 1.199 .121 .917 .145 .518 0 0M.828 2.695 .591 1.846C.542 1.966 .483 2.073 .413 2.168 .093 2.614-.471 2.837-1.279 2.837-2.157 2.837-2.958 2.58-3.682 2.065-4.406 1.551-4.876 .905-5.091 .127-5.135-.026-5.169-.181-5.193-.337-5.217-.493-5.229-.635-5.229-.762-5.225-1.351-5.004-1.813-4.567-2.146-4.131-2.479-3.526-2.646-2.754-2.646-1.973-2.646-1.316-2.438-.786-2.021-.68-1.94-.582-1.849-.489-1.748L-.691-2.495C-.806-2.918-1.02-3.23-1.333-3.433-1.647-3.635-2.069-3.735-2.6-3.735-3.048-3.735-3.362-3.695-3.544-3.615-3.727-3.536-3.817-3.398-3.817-3.203H-5.873C-5.951-3.714-5.739-4.107-5.234-4.383-4.729-4.657-3.974-4.795-2.969-4.795-1.784-4.795-.85-4.594-.167-4.191 .515-3.79 .97-3.172 1.198-2.339L2.608 2.695Z" fill="#1f2e60" fill-rule="evenodd"/>
<path transform="matrix(1,0,0,-1,248.5127,484.9906)" d="M0 0C-.026-.095-.077-.195-.151-.303-.222-.407-.296-.488-.375-.547-.836-.898-1.366-1.074-1.963-1.074-2.196-1.074-2.377-1.033-2.506-.952-2.636-.871-2.701-.755-2.701-.605-2.701-.576-2.698-.545-2.694-.513-2.69-.48-2.683-.447-2.674-.415-2.613-.197-2.474-.031-2.256 .083-2.039 .197-1.68 .291-1.179 .366L-.416 .479C-.2 .515-.003 .569 .177 .645ZM1.996 3.12C1.583 3.387 .914 3.521-.013 3.521-1.027 3.521-1.846 3.362-2.469 3.047-3.093 2.731-3.497 2.269-3.681 1.66H-1.896C-1.769 1.907-1.591 2.094-1.363 2.219-1.135 2.345-.858 2.407-.533 2.407-.107 2.407 .187 2.36 .349 2.266 .463 2.197 .523 2.098 .527 1.968 .532 1.844 .49 1.736 .402 1.643 .314 1.551 .187 1.479 .02 1.431-.112 1.392-.252 1.364-.401 1.348L-1.995 1.182C-2.671 1.113-3.242 .93-3.708 .63-4.173 .33-4.467-.041-4.59-.483-4.612-.555-4.628-.628-4.639-.703-4.65-.778-4.656-.845-4.656-.903-4.656-1.271-4.488-1.559-4.152-1.766-3.817-1.972-3.355-2.075-2.767-2.075-1.881-2.075-1.067-1.819-.326-1.309-.366-1.514-.37-1.721-.339-1.929V-1.934H.684 1.706L1.759-1.743V-1.738C1.631-1.689 1.555-1.603 1.528-1.477 1.502-1.352 1.521-1.171 1.587-.937L2.397 1.962C2.437 2.092 2.455 2.214 2.45 2.328 2.455 2.66 2.303 2.924 1.996 3.12" fill="#1f2e60" fill-rule="evenodd"/>
<path transform="matrix(1,0,0,-1,257.377,484.2337)" d="M0 0 2.106 2.896 2.542 0ZM2.609 4.487H1.444L-4.094-2.69H-3.021-1.955L-.877-1.187H2.707L2.924-2.69H4.031 5.133L3.775 4.487Z" fill="#1f2e60" fill-rule="evenodd"/>
<path transform="matrix(1,0,0,-1,265.9512,479.74644)" d="M0 0H-.942L-2.944-7.178H-1.996-1.055L.947 0Z" fill="#1f2e60" fill-rule="evenodd"/>
<path transform="matrix(1,0,0,-1,271.7969,484.01603)" d="M0 0C-.018-.106-.041-.211-.072-.315-.203-.791-.456-1.173-.83-1.463-1.203-1.753-1.629-1.897-2.108-1.897-2.613-1.897-2.963-1.752-3.156-1.461-3.35-1.169-3.369-.755-3.215-.218H-3.222C-3.1 .234-2.849 .605-2.471 .896-2.093 1.186-1.671 1.33-1.205 1.33-.814 1.33-.512 1.24-.299 1.059-.086 .879 .021 .624 .021 .295 .025 .204 .018 .105 0 0M1.998 .236C2.022 .402 2.037 .552 2.041 .686 2.041 1.269 1.836 1.724 1.426 2.053 1.016 2.382 .445 2.546-.282 2.546-1.134 2.546-1.914 2.282-2.625 1.755L-2.771 1.643-2.564 2.404H-3.453-4.34L-6.402-4.988H-5.453-4.512L-3.756-2.278-3.743-2.298C-3.383-2.799-2.77-3.05-1.9-3.05-1.037-3.05-.244-2.783 .479-2.252 1.199-1.719 1.672-1.053 1.896-.252 1.939-.093 1.975 .07 1.998 .236" fill="#1f2e60" fill-rule="evenodd"/>
<path transform="matrix(1,0,0,-1,280.8115,481.9554)" d="M0 0C-.347 .323-.907 .485-1.681 .485-2.532 .485-3.258 .258-3.854-.198L-4.04-.335-3.328 2.209H-4.276-5.218L-7.22-4.969H-6.272-5.33L-4.485-1.917C-4.38-1.533-4.16-1.232-3.825-1.016-3.491-.8-3.081-.691-2.597-.691-2.2-.691-1.931-.772-1.785-.936-1.64-1.099-1.613-1.349-1.706-1.688L-2.62-4.969H-1.674-.733L.277-1.346C.439-.772 .347-.324 0 0" fill="#1f2e60" fill-rule="evenodd"/>
<path transform="matrix(1,0,0,-1,285.6797,484.9906)" d="M0 0C-.026-.095-.076-.195-.151-.303-.222-.407-.297-.488-.375-.547-.836-.898-1.365-1.074-1.963-1.074-2.195-1.074-2.377-1.033-2.506-.952-2.636-.871-2.701-.755-2.701-.605-2.701-.576-2.698-.545-2.693-.513-2.689-.48-2.684-.447-2.674-.415-2.613-.197-2.474-.031-2.256 .083-2.039 .197-1.68 .291-1.18 .366L-.416 .479C-.2 .515-.003 .569 .178 .645ZM1.996 3.12C1.583 3.387 .914 3.521-.013 3.521-1.027 3.521-1.846 3.362-2.469 3.047-3.093 2.731-3.496 2.269-3.682 1.66H-1.896C-1.77 1.907-1.592 2.094-1.363 2.219-1.135 2.345-.857 2.407-.533 2.407-.107 2.407 .188 2.36 .35 2.266 .463 2.197 .523 2.098 .527 1.968 .531 1.844 .49 1.736 .402 1.643 .314 1.551 .188 1.479 .02 1.431-.111 1.392-.252 1.364-.401 1.348L-1.995 1.182C-2.672 1.113-3.242 .93-3.707 .63-4.173 .33-4.467-.041-4.59-.483-4.611-.555-4.629-.628-4.639-.703-4.65-.778-4.656-.845-4.656-.903-4.656-1.271-4.488-1.559-4.152-1.766-3.816-1.972-3.355-2.075-2.768-2.075-1.881-2.075-1.067-1.819-.326-1.309-.365-1.514-.37-1.721-.34-1.929V-1.934H.684 1.706L1.759-1.743V-1.738C1.631-1.689 1.555-1.603 1.528-1.477 1.502-1.352 1.521-1.171 1.588-.937L2.397 1.962C2.438 2.092 2.455 2.214 2.45 2.328 2.455 2.66 2.303 2.924 1.996 3.12" fill="#1f2e60" fill-rule="evenodd"/>
<path transform="matrix(1,0,0,-1,294.9512,481.61174)" d="M0 0H-.999L-3.639-3.916H-3.643L-4.04 0H-5.093-6.146L-5.046-5.313H-4.051-3.063L1 0Z" fill="#1f2e60" fill-rule="evenodd"/>
<path transform="matrix(1,0,0,-1,298.8525,479.68794)" d="M0 0H-1.909L-2.266-1.279H-.355Z" fill="#1f2e60" fill-rule="evenodd"/>
<path transform="matrix(1,0,0,-1,297.2852,481.61174)" d="M0 0H-.941L-2.424-5.313H-1.475-.533L.948 0Z" fill="#1f2e60" fill-rule="evenodd"/>
<path transform="matrix(1,0,0,-1,300.8789,479.74644)" d="M0 0H-.942L-2.944-7.178H-1.996-1.055L.947 0Z" fill="#1f2e60" fill-rule="evenodd"/>
<path transform="matrix(1,0,0,-1,303.9512,479.74644)" d="M0 0H-.941L-2.943-7.178H-1.996-1.054L.948 0Z" fill="#1f2e60" fill-rule="evenodd"/>
<path transform="matrix(1,0,0,-1,309.2578,483.7113)" d="M0 0H-2.926C-2.789 .267-2.625 .485-2.433 .654-2.1 .944-1.681 1.089-1.176 1.089-.777 1.089-.48 1.015-.285 .867-.09 .719 .008 .491 .008 .186ZM1.197 1.753C.736 2.078 .056 2.241-.845 2.241-1.912 2.241-2.814 1.992-3.555 1.494-4.295 .996-4.787 .306-5.033-.576-5.072-.729-5.104-.881-5.125-1.03-5.146-1.18-5.16-1.32-5.164-1.45-5.164-2.065-4.916-2.537-4.417-2.863-3.919-3.191-3.202-3.354-2.268-3.354-1.477-3.354-.752-3.203-.09-2.9 .57-2.598 1.067-2.188 1.401-1.67H-.516C-.625-1.836-.811-1.971-1.074-2.072-1.336-2.176-1.628-2.227-1.947-2.227-2.39-2.227-2.721-2.146-2.939-1.984-3.158-1.824-3.271-1.582-3.274-1.26-3.274-1.172-3.266-1.079-3.248-.981L-3.234-.913H1.67L1.72-.742C1.778-.55 1.82-.364 1.848-.186 1.875-.007 1.889 .161 1.889 .317 1.889 .949 1.658 1.428 1.197 1.753" fill="#1f2e60" fill-rule="evenodd"/>
<path transform="matrix(1,0,0,-1,319.418,484.36073)" d="M0 0C-.127-.466-.379-.841-.756-1.126-1.133-1.41-1.564-1.553-2.051-1.553-2.446-1.553-2.752-1.463-2.969-1.284-3.186-1.105-3.295-.852-3.295-.522-3.295-.441-3.287-.349-3.271-.244-3.256-.14-3.233-.034-3.203 .073-3.066 .555-2.811 .943-2.434 1.237-2.056 1.532-1.626 1.68-1.144 1.68-.627 1.68-.27 1.534-.072 1.243 .126 .951 .15 .537 0 0M2.143 4.614H1.2L.486 2.08 .453 2.124C.085 2.635-.556 2.891-1.469 2.891-2.303 2.891-3.063 2.643-3.753 2.146-4.441 1.649-4.892 1.027-5.102 .278-5.15 .1-5.189-.082-5.217-.267-5.246-.45-5.26-.615-5.26-.762-5.26-1.37-5.055-1.847-4.645-2.19-4.233-2.533-3.666-2.705-2.94-2.705-2.098-2.705-1.328-2.458-.635-1.963L-.802-2.563H.146 1.088L3.09 4.614Z" fill="#1f2e60" fill-rule="evenodd"/>
<path transform="matrix(1,0,0,-1,326.7227,483.7113)" d="M0 0H-2.927C-2.791 .267-2.627 .485-2.434 .654-2.1 .944-1.682 1.089-1.178 1.089-.778 1.089-.481 1.015-.286 .867-.092 .719 .006 .491 .006 .186ZM1.196 1.753C.734 2.078 .055 2.241-.846 2.241-1.912 2.241-2.816 1.992-3.556 1.494-4.295 .996-4.788 .306-5.034-.576-5.073-.729-5.104-.881-5.126-1.03-5.148-1.18-5.161-1.32-5.166-1.45-5.166-2.065-4.916-2.537-4.418-2.863-3.92-3.191-3.203-3.354-2.268-3.354-1.478-3.354-.752-3.203-.092-2.9 .569-2.598 1.066-2.188 1.4-1.67H-.516C-.625-1.836-.813-1.971-1.074-2.072-1.338-2.176-1.629-2.227-1.948-2.227-2.391-2.227-2.722-2.146-2.94-1.984-3.16-1.824-3.271-1.582-3.275-1.26-3.275-1.172-3.268-1.079-3.249-.981L-3.236-.913H1.668L1.719-.742C1.777-.55 1.82-.364 1.848-.186 1.874-.007 1.888 .161 1.888 .317 1.888 .949 1.657 1.428 1.196 1.753" fill="#1f2e60" fill-rule="evenodd"/>
<path transform="matrix(1,0,0,-1,340.5195,480.3861)" d="M0 0 .166 .64H-7.732L-7.924 0-8.115-.64H-5.151L-6.798-6.538H-5.789-4.78L-3.134-.64H-.166Z" fill="#1f2e60" fill-rule="evenodd"/>
<path transform="matrix(1,0,0,-1,341.7529,483.057)" d="M0 0C.333 .29 .752 .435 1.257 .435 1.655 .435 1.952 .36 2.147 .213 2.343 .064 2.44-.163 2.44-.469L2.433-.654H-.493C-.356-.388-.192-.169 0 0M1.358-2.727C1.097-2.83 .805-2.881 .485-2.881 .043-2.881-.288-2.801-.507-2.639-.726-2.479-.838-2.236-.842-1.914-.842-1.826-.833-1.733-.815-1.636L-.802-1.567H4.103L4.152-1.396C4.211-1.204 4.253-1.019 4.28-.84 4.308-.661 4.321-.493 4.321-.337 4.321 .295 4.091 .773 3.63 1.099 3.169 1.424 2.488 1.587 1.588 1.587 .521 1.587-.382 1.338-1.122 .84-1.862 .342-2.354-.349-2.601-1.23-2.64-1.384-2.671-1.535-2.692-1.685-2.714-1.834-2.728-1.975-2.731-2.104-2.731-2.72-2.483-3.191-1.984-3.518-1.486-3.846-.77-4.009 .165-4.009 .956-4.009 1.681-3.857 2.343-3.555 3.003-3.252 3.5-2.842 3.834-2.324H1.917C1.808-2.49 1.622-2.625 1.358-2.727" fill="#1f2e60" fill-rule="evenodd"/>
<path transform="matrix(1,0,0,-1,343.2422,479.4193)" d="M0 0-1.976-1.46H-.435L.646-.645 1.271-1.46H2.779L1.673 0H.836Z" fill="#1f2e60" fill-rule="evenodd"/>
<path transform="matrix(1,0,0,-1,351.3242,481.47013)" d="M0 0C-.852 0-1.575-.228-2.172-.684L-2.436-.903-2.225-.142H-3.143-4.061L-5.543-5.454H-4.594-3.652L-2.809-2.402C-2.703-2.019-2.482-1.718-2.147-1.501-1.813-1.285-1.404-1.177-.92-1.177-.523-1.177-.252-1.258-.107-1.421 .037-1.584 .064-1.834-.027-2.173L-.943-5.454H.004 .944L1.955-1.831C2.117-1.258 2.025-.81 1.679-.485 1.332-.162 .772 0 0 0" fill="#1f2e60" fill-rule="evenodd"/>
<path transform="matrix(1,0,0,-1,355.8223,481.61174)" d="M0 0H-.941L-2.424-5.313H-1.475-.533L.948 0Z" fill="#1f2e60" fill-rule="evenodd"/>
<path transform="matrix(1,0,0,-1,357.0342,480.9671)" d="M0 0 .355 1.279H-1.554L-1.91 0Z" fill="#1f2e60" fill-rule="evenodd"/>
<path transform="matrix(1,0,0,-1,359.7129,482.64683)" d="M0 0C.219 .081 .506 .122 .859 .122 1.248 .122 1.521 .07 1.679-.031 1.837-.135 1.916-.31 1.916-.557H3.734C3.759-.437 3.771-.325 3.771-.225 3.771 .186 3.585 .506 3.212 .737 2.742 1.03 1.994 1.177 .967 1.177 .08 1.177-.668 1.021-1.275 .708-1.884 .396-2.262-.027-2.412-.562-2.447-.686-2.465-.803-2.465-.913-2.465-1.196-2.342-1.424-2.096-1.597-1.762-1.831-1.068-2.039-.016-2.222 .52-2.316 .885-2.407 1.081-2.495 1.274-2.583 1.354-2.692 1.318-2.822 1.271-2.991 1.136-3.124 .913-3.221 .689-3.316 .406-3.364 .06-3.364-.469-3.364-.847-3.3-1.076-3.172-1.307-3.043-1.398-2.845-1.355-2.578H-3.285L-3.317-2.9C-3.313-3.356-3.111-3.709-2.712-3.96-2.221-4.266-1.43-4.419-.342-4.419 .637-4.419 1.456-4.258 2.117-3.936 2.777-3.613 3.184-3.177 3.338-2.627 3.373-2.503 3.391-2.388 3.391-2.28 3.391-1.984 3.257-1.746 2.989-1.567 2.643-1.326 1.929-1.108 .848-.913 .357-.825 .021-.739-.16-.654-.345-.566-.42-.461-.385-.337-.347-.193-.219-.081 0 0" fill="#1f2e60" fill-rule="evenodd"/>
<path transform="matrix(1,0,0,-1,284.6387,459.31193)" d="M0 0C4.475 6.57 9.068 13.033 13.656 19.5 14.596 13.266 15.396 6.494 16.137 .084 10.758 .055 5.379 .029 0 0M21.898 28.061 11.107 28.109C11.107 28.109 10.205 27.99 9.936 27.908 9.521 27.781 9.076 27.627 8.813 27.48 7.186 26.564-22.494-15.197-22.494-15.197-22.494-15.197-20.451-15.188-19.529-15.184-16.297-15.164-13.268-15.223-11.264-14.484-9.131-13.699-7.662-10.801-6.381-9.021-5.988-8.48-5.201-7.32-4.807-7.201-4.238-7.039-3.02-7.193-2.092-7.188 3.57-7.156 8.814-7.131 14.377-7.102 15.135-7.098 16.857-6.949 17.09-7.16 17.193-7.252 17.205-8.273 17.262-8.684 17.473-10.246 17.619-12.047 18.191-13.096 19.555-15.596 24.277-14.811 29.049-14.924 26.814-1.498 24.627 11.633 22.424 25.271 22.342 25.772 21.992 27.494 21.898 28.061" fill="#1f2e60" fill-rule="evenodd"/>
<path transform="matrix(1,0,0,-1,350.3906,438.9935)" d="M0 0C0 0 .424 .012 .543 .02 1.559 .092 2.498 .271 3.021 .562 4.875 1.586 6.158 5.088 7.127 7.975L-27.146 7.979C-27.146 7.979-28.359 7.88-28.717 7.805-29.18 7.713-29.607 7.587-29.975 7.419-32.373 6.311-33.51 .02-33.51 .02L-19.686 .039C-19.686 .039-28.018-28.119-28.43-29.809-28.838-31.496-28.959-33.145-28.057-33.93-27.025-34.834-23.957-34.852-21.766-34.84-21.215-34.838-19.211-34.824-19.211-34.824-19.211-34.824-18.781-33.211-18.609-32.648-15.467-22.326-9.021 .02-9.021 .02-9.02 .02 0 0 0 0" fill="#1f2e60" fill-rule="evenodd"/>
<path transform="matrix(1,0,0,-1,260.2227,468.48963)" d="M0 0C-.436 1.084-1.996 1.41-3.799 1.498-5.1 1.555-19.609 1.504-19.609 1.504-19.609 1.504-10.115 34.297-10.102 34.35-9.734 35.699-9.832 36.373-10.166 36.994-10.418 37.458-10.816 38.23-12.256 38.23-12.512 38.23-19.432 38.213-19.432 38.213-20.092 36.012-31.227-1.068-31.42-2.545-31.914-6.295-29.445-6.307-25.602-6.285-25.465-6.285-1.289-6.275-1.289-6.275-1.289-6.275 .459-1.154 0 0" fill="#1f2e60" fill-rule="evenodd"/>
</g>
</g>
</svg>
