<svg xmlns="http://www.w3.org/2000/svg" xmlns:xlink="http://www.w3.org/1999/xlink" xmlns:inkscape="http://www.inkscape.org/namespaces/inkscape" version="1.1" width="165.998" height="190.666" viewBox="0 0 165.998 190.666">
<defs>
<clipPath id="clip_1">
<path transform="matrix(1,0,0,-1,0,190.666)" d="M0 190.666H165.998V0H0Z"/>
</clipPath>
</defs>
<g inkscape:groupmode="layer" inkscape:label="Layer 1">
<g clip-path="url(#clip_1)">
<path transform="matrix(1,0,0,-1,164.998,175.6914)" d="M0 0C0-7.719-6.346-13.975-14.172-13.975H-149.826C-157.652-13.975-163.998-7.719-163.998 0V160.717C-163.998 168.435-157.652 174.691-149.826 174.691H-14.172C-6.346 174.691 0 168.435 0 160.717Z" fill="#ffffff"/>
<path transform="matrix(1,0,0,-1,15.1719,2)" d="M0 0C-7.263 0-13.172-5.82-13.172-12.975V-173.691C-13.172-180.846-7.263-186.666 0-186.666H135.654C142.917-186.666 148.826-180.846 148.826-173.691V-12.975C148.826-5.82 142.917 0 135.654 0ZM135.654-188.666H0C-8.366-188.666-15.172-181.948-15.172-173.691V-12.975C-15.172-4.718-8.366 2 0 2H135.654C144.021 2 150.826-4.718 150.826-12.975V-173.691C150.826-181.948 144.021-188.666 135.654-188.666" fill="#bbbdbf"/>
<path transform="matrix(1,0,0,-1,134.1035,61.039995)" d="M0 0C-3.527 .184-6.533-2.527-6.717-6.052-6.9-9.577-4.191-12.584-.668-12.768 2.857-12.952 5.865-10.242 6.049-6.717 6.232-3.191 3.523-.185 0 0" fill="#29aae1"/>
<path transform="matrix(1,0,0,-1,124.1309,93.1582)" d="M0 0C0 0 1.391 .876 2.213 1.466 3.033 2.056 4.586 3.079 4.855 3.698 5.125 4.316 5.848 6.018 5.123 5.819 4.404 5.618 .623 2.892-1.158 2.036-2.939 1.182-4.086 .45-4.086 .45-4.086 .45-5.594 .291-6.387 .253-8.246 .167-10.188 .47-12.041 .604-13.15 .685-14.293 .698-15.393 .854-16.262 .978-16.236 1.285-16.822 1.688-17.547 2.184-18.047 2.446-18.945 2.827-20.361 3.429-21.775 4.038-23.189 4.644-24.703 5.292-29.229 8.333-30.502 6.093L-36.131 10.259-33.812 11.974-36.95 15.27C-38.992 13.843-40.832 12.559-40.832 12.559-40.832 12.559-44.334 15.11-53.074 15.725-54.34 16.7-55.619 17.659-56.873 18.646-57.684 19.282-58.588 19.859-59.354 20.546-60.621 21.685-61.221 23.559-62.037 25.024-62.674 26.171-63.313 27.315-63.949 28.461-64.227 28.966-63.467 30.245-63.295 30.736-62.99 31.61-62.844 32.849-62.258 33.589-61.836 34.118-61.42 35.243-61.42 35.243-61.42 35.243-59.904 37.062-58.891 38.312-57.877 39.563-55.883 43.726-55.789 45.5-55.789 45.5-54.758 47.105-54.467 48.157-54.174 49.209-53.699 53.807-53.91 54.292-54.121 54.776-54.514 54.087-54.65 53.737-54.607 53.849-54.91 54.728-54.873 55.054-54.686 56.676-54.336 58.319-54.244 60.003-54.184 61.144-54.563 62.091-54.393 63.2-54.203 64.417-53.986 65.364-54.863 66.501-55.613 67.474-55.797 67.196-56.02 68.356-56.309 69.858-56.4 69.776-57.891 69.997-58.457 70.079-58.855 70.04-59.379 70.319-59.785 70.536-59.912 71.101-60.391 71.241-60.727 71.339-61.043 71.079-61.35 71.062-62.428 71.007-62.215 71.464-63.209 71.884-63.814 72.14-64.92 72.099-65.578 71.948-66.467 71.743-66.867 70.868-67.537 70.632-68.215 70.394-69.867 70.745-70.607 70.833-71.518 70.942-72.064 70.923-72.949 70.808-73.619 70.72-74.256 71.099-74.846 71.04-75.84 70.938-75.082 70.733-74.891 70.126-74.697 69.517-74.711 69.46-75.207 68.817-75.631 68.267-76.537 67.948-76.641 67.171-76.707 66.671-76.512 66.083-76.529 65.565-76.57 64.507-76.926 63.485-77.01 62.431-75.934 61.841-76.234 60.128-76.338 59.144-76.455 58.048-76.285 56.323-76.664 55.354-76.541 55.663-77.627 55.435-77.703 55.401-78.025 55.255-78.359 54.651-78.486 54.339-78.787 53.593-78.662 52.698-78.514 51.935-78.307 50.854-76.014 47.022-78.586 47.131-78.822 46.271-78.602 45.37-77.982 44.743-78.377 44.681-78.955 44.261-79.26 44.179-78.609 44.351-77.65 43.847-76.906 43.976-76.969 43.313-79.238 41.392-79.84 41.182-79.84 41.182-85.756 39.119-88.262 36.523-90.768 33.927-93.055 30.965-93.055 30.965-93.055 30.965-95.832 25.419-96.369 24.263-96.902 23.104-99.197 20.024-100.199 19.009-101.199 17.995-103.645 14.329-104.09 12.573-104.537 10.819-106.791 6.196-107.104 4.79-107.414 3.383-109.027-.326-109.121-2.102-109.391-7.271-108.795-12.858-109.852-17.938-110.461-20.864-110.898-23.599-111.965-27.234-106.143-24.788-98.975-21.505-93.285-19.263-90.873-18.313-75.313-15.845-74.637-14.811-71.668-10.267-67.016-2.382-65.842 2.759-62.801 2.819-59.746 2.872-56.707 2.901-55.408 2.915-54.707 2.067-53.633 1.544-50.162-.143-45.168-.33-41.395-1.124-38.695-1.692-35.994-2.269-33.297-2.849L-32.75-3.706C-30.77-4.12-28.791-4.54-26.809-4.952-25.451-5.234-24.094-5.515-22.734-5.795-20.873-6.179-19.65-6.149-17.859-6.853-17.162-7.127-9.574-7.048-9.574-7.048-9.574-7.048-7.369-7.992-6.447-8.515-5.527-9.036-1.637-9.477-1.383-9.134-1.129-8.792-1.229-8.431-2.273-8.021-2.787-7.819-7.113-5.507-6.742-5.062-6.363-4.607-5.275-4.189-4.088-4.134-2.896-4.077-1.959-4.244-1-4.057-.043-3.87 .313-3.889 1.623-3.72 2.938-3.55 4.125-3.494 4.387-3.032 4.596-2.667 4.746-2.257 4.941-1.899 4.844-2.077 6.385-1.838 6.527-1.757 7.016-1.481 7.404-.958 7.695-.493 7.193-.137 6.451-.099 5.848-.067 4.348 .011 0 0 0 0" fill="#29aae1"/>
<path transform="matrix(1,0,0,-1,148.5732,40.6445)" d="M0 0C-4.985-6.425-23.818-19.585-23.818-19.585-26.427-21.247-29.115-22.899-31.979-24.093-32.745-24.412-36.286-25.98-36.806-25.107-37.212-24.425-32.292-19.7-30.769-18.382-27.835-15.844-24.75-13.485-21.588-11.239-15.013-6.57-8.097-2.237-.938 1.495 1.185 2.131 0 0 0 0M-44.737-30.263-38.202-24.638C-40.187-27.06-37.571-26.846-37.571-26.846ZM1.173 3.886C-.284 5.413-3.634 3.951-3.634 3.951-12.06 1.466-28.601-12.435-28.601-12.435L-47.751-28.37C-47.751-28.37-54.765-34.007-55.022-33.989-55.281-33.972-56.326-34.031-56.326-34.031L-67.628-41.589-62.54-44.208-52.958-37.12-52.644-36.296C-51.874-35.503-44.907-31.487-43.033-30.704-41.16-29.921-29.138-24.231-29.138-24.231-12.458-15.021 .979-.911 .979-.911 3.519 2.038 1.173 3.886 1.173 3.886" fill="#29aae1"/>
<path transform="matrix(1,0,0,-1,148.5771,115.8847)" d="M0 0C0 0-60.179 34.831-139.481-5.777L-141.035-7.249C-61.397 26.39 2.748-.8 2.748-.8Z" fill="#1f2e60" fill-rule="evenodd"/>
<path transform="matrix(1,0,0,-1,5.7578,180.5351)" d="M0 0 1.861 6.676H2.8 3.738L2.208 1.189H6.682L6.504 .595 6.326 0Z" fill="#1f2e60"/>
<path transform="matrix(1,0,0,-1,14.6367,173.8056)" d="M0 0H1.775L1.445-1.189H-.331ZM-.558-1.789H.318 1.2L-.178-6.729H-1.054-1.936Z" fill="#1f2e60"/>
<path transform="matrix(1,0,0,-1,19.6016,176.5937)" d="M0 0C-.438 0-.826-.132-1.168-.395-1.508-.658-1.738-1.007-1.856-1.439-1.885-1.533-1.905-1.626-1.918-1.719-1.93-1.811-1.938-1.895-1.941-1.971-1.941-2.265-1.844-2.492-1.648-2.654-1.452-2.816-1.174-2.896-.814-2.896-.374-2.896 .016-2.77 .354-2.516 .693-2.262 .92-1.925 1.035-1.508 1.17-1.026 1.146-.654 .967-.393 .787-.131 .465 0 0 0M-1.384-4.981C-.891-4.981-.498-4.888-.205-4.7 .086-4.512 .285-4.222 .391-3.828L.579-3.133C.494-3.227 .402-3.312 .304-3.388-.189-3.775-.801-3.969-1.527-3.969-2.245-3.969-2.808-3.813-3.213-3.503-3.619-3.193-3.824-2.764-3.828-2.216-3.828-2.098-3.817-1.966-3.795-1.82-3.773-1.676-3.741-1.531-3.7-1.39-3.5-.666-3.063-.064-2.39 .413-1.717 .892-.972 1.131-.154 1.131 .596 1.131 1.121 .924 1.418 .509 1.484 .421 1.539 .321 1.584 .209L1.805 .999H3.459L2.148-3.683C1.937-4.458 1.514-5.032 .879-5.406 .244-5.779-.625-5.967-1.727-5.967-2.662-5.967-3.363-5.839-3.833-5.583-4.303-5.327-4.5-4.962-4.428-4.486H-2.516C-2.516-4.668-2.432-4.796-2.262-4.87-2.093-4.944-1.801-4.981-1.384-4.981" fill="#1f2e60"/>
<path transform="matrix(1,0,0,-1,26.752,178.7373)" d="M0 0 .164 .6C-.003 .53-.187 .479-.387 .445L-1.098 .341C-1.563 .271-1.896 .184-2.098 .077-2.301-.028-2.43-.183-2.487-.386-2.496-.416-2.496-.416-2.487-.386-2.496-.416-2.502-.446-2.506-.477-2.51-.507-2.512-.535-2.512-.563-2.512-.702-2.451-.81-2.331-.885-2.211-.961-2.042-.999-1.826-.999-1.27-.999-.777-.835-.35-.508-.275-.454-.206-.378-.141-.281-.072-.182-.024-.088 0 0M-2.574-1.93C-3.12-1.93-3.55-1.833-3.861-1.642-4.174-1.449-4.33-1.182-4.33-.84-4.33-.785-4.324-.724-4.314-.653-4.305-.584-4.289-.516-4.269-.449-4.154-.037-3.881 .308-3.447 .586-3.016 .864-2.484 1.036-1.855 1.1L-.373 1.254C-.234 1.269-.104 1.295 .019 1.331 .174 1.376 .292 1.442 .374 1.528 .455 1.614 .494 1.716 .49 1.83 .486 1.951 .432 2.044 .324 2.107 .174 2.195-.1 2.239-.496 2.239-.798 2.239-1.055 2.181-1.268 2.064-1.48 1.947-1.646 1.774-1.764 1.544H-3.424C-3.252 2.11-2.877 2.54-2.297 2.834-1.717 3.128-.955 3.274-.012 3.274 .85 3.274 1.473 3.15 1.855 2.901 2.142 2.72 2.283 2.475 2.279 2.165 2.283 2.06 2.267 1.945 2.229 1.824L1.477-.871C1.415-1.089 1.396-1.257 1.422-1.373 1.445-1.489 1.518-1.571 1.636-1.616V-1.621L1.586-1.798H.635-.315V-1.793C-.344-1.6-.34-1.407-.303-1.217-.992-1.692-1.75-1.93-2.574-1.93" fill="#1f2e60"/>
<path transform="matrix(1,0,0,-1,34.8154,176.7793)" d="M0 0H2.32C2.781 0 3.14 .067 3.397 .204 3.654 .34 3.823 .551 3.905 .835 3.922 .896 3.935 .951 3.942 1.001 3.95 1.051 3.954 1.1 3.954 1.148 3.954 1.372 3.853 1.535 3.648 1.637 3.444 1.738 3.118 1.789 2.67 1.789H.499ZM-1.062 2.92H-.124 3.624C4.335 2.92 4.89 2.794 5.29 2.543 5.69 2.291 5.89 1.943 5.89 1.498 5.89 1.423 5.883 1.339 5.868 1.246 5.854 1.153 5.835 1.065 5.81 .98 5.655 .417 5.269-.018 4.653-.323 4.461-.417 4.249-.498 4.016-.568 4.105-.596 4.185-.627 4.255-.663 4.704-.891 4.862-1.271 4.732-1.808L4.476-2.893C4.422-3.111 4.409-3.266 4.438-3.356 4.467-3.447 4.549-3.52 4.684-3.574L4.634-3.751H2.558C2.521-3.67 2.515-3.515 2.536-3.286 2.56-3.058 2.603-2.817 2.669-2.566L2.831-1.958C2.905-1.652 2.847-1.434 2.656-1.304 2.466-1.174 2.104-1.108 1.572-1.108H-.315-.31L-1.048-3.756H-1.985-2.923Z" fill="#1f2e60"/>
<path transform="matrix(1,0,0,-1,42.166,173.8056)" d="M0 0H1.777L1.445-1.189H-.33ZM-.557-1.789H.319 1.201L-.177-6.729H-1.053-1.935Z" fill="#1f2e60"/>
<path transform="matrix(1,0,0,-1,47.6641,179.1816)" d="M0 0C.337 .26 .578 .652 .725 1.176 .75 1.261 .768 1.346 .78 1.43 .793 1.515 .799 1.592 .799 1.662 .799 1.968 .688 2.204 .469 2.372 .25 2.54-.063 2.624-.465 2.624-.995 2.624-1.43 2.492-1.77 2.228-2.108 1.962-2.354 1.563-2.504 1.03-2.525 .949-2.542 .867-2.557 .785-2.57 .703-2.576 .628-2.572 .559-2.572 .256-2.463 .021-2.243-.144-2.023-.309-1.711-.391-1.305-.391-.773-.391-.338-.261 0 0M-3.653-.979C-4.153-.642-4.405-.182-4.41 .399-4.41 .499-4.4 .612-4.382 .737-4.363 .863-4.338 .983-4.305 1.099-4.081 1.9-3.596 2.538-2.851 3.011-2.105 3.482-1.209 3.719-.159 3.719 .703 3.719 1.383 3.548 1.883 3.206 2.384 2.863 2.634 2.398 2.634 1.812 2.634 1.709 2.623 1.594 2.604 1.467 2.582 1.339 2.557 1.217 2.523 1.099 2.303 .306 1.82-.323 1.075-.788 .33-1.253-.565-1.485-1.61-1.485-2.473-1.485-3.152-1.316-3.653-.979" fill="#1f2e60"/>
<path transform="matrix(1,0,0,-1,56.9756,176.5889)" d="M0 0C-.448 0-.849-.137-1.199-.411-1.55-.686-1.788-1.046-1.915-1.494-1.943-1.594-1.965-1.692-1.979-1.789-1.993-1.886-2.001-1.973-2.001-2.048-2.001-2.354-1.899-2.59-1.698-2.757-1.495-2.923-1.212-3.006-.845-3.006-.392-3.006 .011-2.874 .36-2.609 .712-2.344 .946-1.995 1.064-1.563 1.203-1.063 1.181-.678 .997-.406 .813-.136 .481 0 0 0M-1.671-4.078C-2.345-4.078-2.874-3.918-3.255-3.599-3.638-3.279-3.829-2.837-3.829-2.271-3.829-2.135-3.815-1.98-3.788-1.81-3.763-1.639-3.727-1.47-3.682-1.304-3.485-.607-3.067-.028-2.427 .434-1.786 .896-1.077 1.126-.302 1.126 .547 1.126 1.143 .889 1.485 .413L1.517 .372 2.18 2.729H3.056 3.938L2.075-3.946H1.2 .317L.474-3.388C-.172-3.848-.887-4.078-1.671-4.078" fill="#1f2e60"/>
<path transform="matrix(1,0,0,-1,64.833,177.5469)" d="M0 0 .006 .172C.006 .457-.085 .668-.267 .806-.448 .943-.724 1.013-1.095 1.013-1.563 1.013-1.953 .878-2.263 .608-2.442 .451-2.595 .248-2.722 0ZM-2.108-3.12C-2.979-3.12-3.646-2.968-4.108-2.664-4.572-2.359-4.804-1.921-4.804-1.349-4.8-1.228-4.788-1.098-4.767-.958-4.747-.819-4.718-.679-4.681-.536-4.452 .284-3.995 .926-3.306 1.39-2.618 1.853-1.778 2.084-.786 2.084 .051 2.084 .684 1.933 1.112 1.63 1.542 1.327 1.756 .882 1.756 .295 1.756 .149 1.743-.007 1.718-.173 1.692-.34 1.653-.512 1.599-.69L1.552-.85H-3.009L-3.021-.913C-3.038-1.004-3.046-1.09-3.046-1.172-3.042-1.472-2.938-1.696-2.734-1.847-2.53-1.996-2.224-2.071-1.812-2.071-1.515-2.071-1.243-2.023-.999-1.928-.755-1.833-.581-1.708-.479-1.554H1.302C.992-2.035 .53-2.416-.085-2.697-.699-2.979-1.374-3.12-2.108-3.12" fill="#1f2e60"/>
<path transform="matrix(1,0,0,-1,74.252,173.8594)" d="M0 0H.938 1.877L.578-4.646C.369-5.391-.022-5.943-.599-6.304-1.166-6.664-1.94-6.844-2.921-6.844-3.918-6.844-4.595-6.651-4.951-6.268-5.309-5.883-5.371-5.272-5.139-4.438L-5.065-4.174H-3.32L-3.393-4.438C-3.523-4.895-3.532-5.221-3.418-5.416-3.304-5.611-3.049-5.709-2.652-5.709-2.248-5.709-1.949-5.632-1.755-5.479-1.561-5.326-1.408-5.049-1.299-4.646Z" fill="#1f2e60"/>
<path transform="matrix(1,0,0,-1,79.7305,178.7373)" d="M0 0 .164 .6C-.003 .53-.187 .479-.387 .445L-1.098 .341C-1.563 .271-1.896 .184-2.098 .077-2.301-.028-2.43-.183-2.487-.386-2.496-.416-2.496-.416-2.487-.386-2.496-.416-2.502-.446-2.506-.477-2.51-.507-2.512-.535-2.512-.563-2.512-.702-2.451-.81-2.331-.885-2.211-.961-2.042-.999-1.826-.999-1.27-.999-.777-.835-.35-.508-.275-.454-.206-.378-.141-.281-.072-.182-.024-.088 0 0M-2.574-1.93C-3.12-1.93-3.55-1.833-3.861-1.642-4.174-1.449-4.33-1.182-4.33-.84-4.33-.785-4.324-.724-4.314-.653-4.305-.584-4.289-.516-4.269-.449-4.154-.037-3.881 .308-3.447 .586-3.016 .864-2.484 1.036-1.855 1.1L-.373 1.254C-.234 1.269-.104 1.295 .019 1.331 .174 1.376 .292 1.442 .374 1.528 .455 1.614 .494 1.716 .49 1.83 .486 1.951 .432 2.044 .324 2.107 .174 2.195-.1 2.239-.496 2.239-.798 2.239-1.055 2.181-1.268 2.064-1.48 1.947-1.646 1.774-1.764 1.544H-3.424C-3.252 2.11-2.877 2.54-2.297 2.834-1.717 3.128-.955 3.274-.012 3.274 .85 3.274 1.473 3.15 1.855 2.901 2.142 2.72 2.283 2.475 2.279 2.165 2.283 2.06 2.267 1.945 2.229 1.824L1.477-.871C1.415-1.089 1.396-1.257 1.422-1.373 1.445-1.489 1.518-1.571 1.636-1.616V-1.621L1.586-1.798H.635-.315V-1.793C-.344-1.6-.34-1.407-.303-1.217-.992-1.692-1.75-1.93-2.574-1.93" fill="#1f2e60"/>
<path transform="matrix(1,0,0,-1,83.25,175.5947)" d="M0 0H.854 1.708L1.512-.708 1.757-.504C2.313-.08 2.985 .132 3.777 .132 4.495 .132 5.016-.019 5.338-.32 5.66-.621 5.746-1.038 5.595-1.571L4.654-4.94H3.78 2.9L3.751-1.889C3.836-1.574 3.813-1.341 3.678-1.189 3.542-1.038 3.29-.963 2.922-.963 2.472-.963 2.091-1.063 1.779-1.265 1.469-1.466 1.264-1.745 1.166-2.103L.38-4.94H-.496-1.378Z" fill="#1f2e60"/>
<path transform="matrix(1,0,0,-1,93.7725,177.5469)" d="M0 0 .006 .172C.006 .457-.085 .668-.267 .806-.448 .943-.724 1.013-1.095 1.013-1.563 1.013-1.953 .878-2.263 .608-2.442 .451-2.595 .248-2.722 0ZM-2.108-3.12C-2.979-3.12-3.646-2.968-4.108-2.664-4.572-2.359-4.804-1.921-4.804-1.349-4.8-1.228-4.788-1.098-4.767-.958-4.747-.819-4.718-.679-4.681-.536-4.452 .284-3.995 .926-3.306 1.39-2.618 1.853-1.778 2.084-.786 2.084 .051 2.084 .684 1.933 1.112 1.63 1.542 1.327 1.756 .882 1.756 .295 1.756 .149 1.743-.007 1.718-.173 1.692-.34 1.653-.512 1.599-.69L1.552-.85H-3.009L-3.021-.913C-3.038-1.004-3.046-1.09-3.046-1.172-3.042-1.472-2.938-1.696-2.734-1.847-2.53-1.996-2.224-2.071-1.812-2.071-1.515-2.071-1.243-2.023-.999-1.928-.755-1.833-.581-1.708-.479-1.554H1.302C.992-2.035 .53-2.416-.085-2.697-.699-2.979-1.374-3.12-2.108-3.12" fill="#1f2e60"/>
<path transform="matrix(1,0,0,-1,97.2402,173.8056)" d="M0 0H1.776L1.445-1.189H-.33ZM-.557-1.789H.318 1.201L-.178-6.729H-1.053-1.936Z" fill="#1f2e60"/>
<path transform="matrix(1,0,0,-1,99.4795,175.5947)" d="M0 0H.835 1.677L1.391-1.003C1.497-.879 1.612-.758 1.739-.64 2.29-.125 2.882 .132 3.515 .132L3.938 .127 3.626-.98C3.479-.969 3.304-.963 3.101-.963 2.574-.963 2.142-1.081 1.801-1.319 1.46-1.557 1.228-1.902 1.101-2.356L.38-4.94H-.496-1.378Z" fill="#1f2e60"/>
<path transform="matrix(1,0,0,-1,106.9912,179.1816)" d="M0 0C.337 .26 .579 .652 .726 1.176 .75 1.261 .769 1.346 .78 1.43 .793 1.515 .799 1.592 .799 1.662 .799 1.968 .688 2.204 .47 2.372 .25 2.54-.062 2.624-.464 2.624-.995 2.624-1.43 2.492-1.769 2.228-2.108 1.962-2.353 1.563-2.504 1.03-2.524 .949-2.542 .867-2.556 .785-2.57 .703-2.575 .628-2.571 .559-2.571 .256-2.462 .021-2.243-.144-2.023-.309-1.711-.391-1.305-.391-.772-.391-.337-.261 0 0M-3.653-.979C-4.153-.642-4.405-.182-4.409 .399-4.409 .499-4.399 .612-4.382 .737-4.363 .863-4.338 .983-4.305 1.099-4.081 1.9-3.596 2.538-2.851 3.011-2.104 3.482-1.208 3.719-.159 3.719 .703 3.719 1.384 3.548 1.884 3.206 2.384 2.863 2.634 2.398 2.634 1.812 2.634 1.709 2.624 1.594 2.604 1.467 2.583 1.339 2.557 1.217 2.524 1.099 2.304 .306 1.821-.323 1.075-.788 .331-1.253-.565-1.485-1.61-1.485-2.472-1.485-3.152-1.316-3.653-.979" fill="#1f2e60"/>
<path transform="matrix(1,0,0,-1,116.3037,176.5889)" d="M0 0C-.448 0-.849-.137-1.199-.411-1.55-.686-1.788-1.046-1.915-1.494-1.943-1.594-1.965-1.692-1.979-1.789-1.993-1.886-2.001-1.973-2.001-2.048-2.001-2.354-1.899-2.59-1.698-2.757-1.495-2.923-1.212-3.006-.845-3.006-.392-3.006 .011-2.874 .36-2.609 .712-2.344 .946-1.995 1.064-1.563 1.203-1.063 1.181-.678 .997-.406 .813-.136 .481 0 0 0M-1.671-4.078C-2.345-4.078-2.874-3.918-3.255-3.599-3.638-3.279-3.829-2.837-3.829-2.271-3.829-2.135-3.815-1.98-3.788-1.81-3.763-1.639-3.727-1.47-3.682-1.304-3.485-.607-3.067-.028-2.427 .434-1.786 .896-1.077 1.126-.302 1.126 .547 1.126 1.143 .889 1.485 .413L1.517 .372 2.18 2.729H3.056 3.938L2.075-3.946H1.2 .317L.474-3.388C-.172-3.848-.887-4.078-1.671-4.078" fill="#1f2e60"/>
<path transform="matrix(1,0,0,-1,124.1602,177.5469)" d="M0 0 .006 .172C.006 .457-.084 .668-.266 .806-.447 .943-.723 1.013-1.094 1.013-1.563 1.013-1.953 .878-2.262 .608-2.441 .451-2.595 .248-2.721 0ZM-2.108-3.12C-2.979-3.12-3.645-2.968-4.108-2.664-4.572-2.359-4.803-1.921-4.803-1.349-4.799-1.228-4.787-1.098-4.767-.958-4.746-.819-4.718-.679-4.681-.536-4.452 .284-3.994 .926-3.306 1.39-2.618 1.853-1.777 2.084-.785 2.084 .051 2.084 .684 1.933 1.113 1.63 1.542 1.327 1.756 .882 1.756 .295 1.756 .149 1.744-.007 1.719-.173 1.693-.34 1.653-.512 1.6-.69L1.553-.85H-3.009L-3.021-.913C-3.037-1.004-3.045-1.09-3.045-1.172-3.041-1.472-2.938-1.696-2.734-1.847-2.53-1.996-2.223-2.071-1.812-2.071-1.514-2.071-1.243-2.023-.998-1.928-.754-1.833-.581-1.708-.479-1.554H1.303C.992-2.035 .53-2.416-.084-2.697-.699-2.979-1.373-3.12-2.108-3.12" fill="#1f2e60"/>
<path transform="matrix(1,0,0,-1,132.2012,175.0498)" d="M0 0H-2.756L-2.578 .595-2.4 1.19H4.945L4.791 .595 4.637 0H1.877L.346-5.485H-.593-1.531Z" fill="#1f2e60"/>
<path transform="matrix(1,0,0,-1,141.0801,173.5556)" d="M0 0 1.029-1.357H-.373L-.955-.6-1.96-1.357H-3.393L-1.556 0H-.777ZM-.678-3.991-.672-3.819C-.672-3.534-.762-3.323-.943-3.186-1.125-3.048-1.401-2.979-1.772-2.979-2.241-2.979-2.631-3.113-2.94-3.383-3.12-3.54-3.273-3.743-3.399-3.991ZM-2.787-7.111C-3.656-7.111-4.323-6.959-4.787-6.655-5.25-6.351-5.481-5.912-5.481-5.34-5.478-5.219-5.465-5.089-5.445-4.949-5.424-4.811-5.396-4.67-5.359-4.527-5.131-3.707-4.672-3.065-3.984-2.602-3.297-2.139-2.456-1.907-1.464-1.907-.627-1.907 .006-2.059 .435-2.361 .863-2.664 1.078-3.109 1.078-3.696 1.078-3.842 1.065-3.998 1.04-4.164 1.016-4.331 .975-4.503 .921-4.682L.874-4.841H-3.688L-3.699-4.904C-3.716-4.995-3.724-5.081-3.724-5.163-3.72-5.463-3.615-5.688-3.412-5.838-3.209-5.987-2.9-6.063-2.49-6.063-2.192-6.063-1.922-6.015-1.677-5.919-1.433-5.824-1.26-5.699-1.158-5.545H.625C.314-6.026-.148-6.407-.763-6.688-1.377-6.971-2.052-7.111-2.787-7.111" fill="#1f2e60"/>
<path transform="matrix(1,0,0,-1,143.2637,175.5947)" d="M0 0H.854 1.707L1.512-.708 1.756-.504C2.312-.08 2.984 .132 3.776 .132 4.494 .132 5.015-.019 5.338-.32 5.66-.621 5.745-1.038 5.594-1.571L4.654-4.94H3.779 2.899L3.75-1.889C3.836-1.574 3.812-1.341 3.677-1.189 3.541-1.038 3.289-.963 2.922-.963 2.471-.963 2.09-1.063 1.779-1.265 1.468-1.466 1.264-1.745 1.165-2.103L.379-4.94H-.496-1.379Z" fill="#1f2e60"/>
<path transform="matrix(1,0,0,-1,150.9043,173.8056)" d="M0 0H1.777L1.445-1.189H-.33ZM-.557-1.789H.319 1.201L-.177-6.729H-1.053-1.935Z" fill="#1f2e60"/>
<path transform="matrix(1,0,0,-1,156.625,177.0752)" d="M0 0C0 .23-.074 .394-.221 .488-.369 .584-.623 .632-.982 .632-1.313 .632-1.578 .594-1.782 .518-1.986 .442-2.105 .338-2.14 .205-2.172 .09-2.104-.009-1.932-.091-1.763-.169-1.451-.249-.994-.331 .012-.513 .676-.716 .998-.939 1.246-1.106 1.371-1.327 1.371-1.603 1.371-1.702 1.354-1.811 1.322-1.925 1.178-2.437 .801-2.843 .186-3.142-.428-3.441-1.191-3.592-2.101-3.592-3.113-3.592-3.848-3.449-4.305-3.165-4.676-2.932-4.863-2.604-4.867-2.18L-4.838-1.88H-3.043C-3.084-2.128-2.997-2.312-2.783-2.432-2.57-2.551-2.218-2.61-1.727-2.61-1.406-2.61-1.141-2.566-.934-2.477-.727-2.388-.602-2.265-.557-2.106-.523-1.985-.598-1.884-.777-1.803-.959-1.721-1.299-1.636-1.797-1.548-2.775-1.379-3.421-1.185-3.732-.967-3.961-.807-4.074-.595-4.074-.331-4.074-.229-4.059-.119-4.025-.004-3.887 .492-3.535 .886-2.969 1.177-2.404 1.467-1.709 1.612-.885 1.612 .072 1.612 .768 1.477 1.205 1.204 1.551 .988 1.725 .69 1.725 .31 1.725 .215 1.713 .112 1.689 0Z" fill="#1f2e60"/>
<path transform="matrix(1,0,0,-1,69.4082,124.7812)" d="M0 0C-.242 .445-.623 1.187-2.004 1.187-2.25 1.187-8.886 1.169-8.886 1.169-9.519-.941-20.196-36.5-20.382-37.916-20.855-41.512-18.488-41.503-14.803-41.503-13.402-41.503-11.565-41.506-11.565-41.506-11.565-41.506 .049-2.586 .062-2.535 .414-1.241 .319-.595 0 0" fill="#1f2e60" fill-rule="evenodd"/>
<path transform="matrix(1,0,0,-1,40.1582,158.8208)" d="M0 0C-1.248 .055-15.162 .005-15.162 .005-15.162 .005-6.058 31.454-6.045 31.505-5.693 32.798-5.786 33.445-6.105 34.04-6.348 34.485-6.73 35.226-8.111 35.226-8.356 35.226-14.992 35.209-14.992 35.209-15.625 33.098-26.304-2.461-26.488-3.876-26.963-7.473-24.596-7.484-20.908-7.463-20.778-7.463 2.405-7.454 2.405-7.454 2.405-7.454 4.083-2.543 3.643-1.437 3.225-.397 1.729-.083 0 0" fill="#1f2e60" fill-rule="evenodd"/>
<path transform="matrix(1,0,0,-1,152.1025,124.7812)" d="M0 0C-.242 .445-.623 1.187-2.004 1.187-2.249 1.187-8.886 1.169-8.886 1.169-9.178 .196-12.257-12.27-15.099-22.801L-16.954-28.832C-17.573-31.433-18.429-33.228-19.519-34.215-20.608-35.203-22.289-35.696-24.563-35.696-26.79-35.696-28.224-35.066-28.866-33.805-29.213-33.122-29.354-32.184-29.297-31.007-29.077-29.739-28.946-28.983-28.946-28.977-28.851-28.518-28.816-27.535-28.816-27.535-28.851-27.092-28.976-26.76-29.167-26.451-29.437-26.022-29.865-25.306-31.242-25.393-31.472-25.407-37.216-25.054-37.98-25.104L-38.128-25.78-38.541-27.482C-38.92-29.047-39.143-30.476-39.243-31.796-39.268-31.923-39.289-32.04-39.313-32.168H-39.267C-39.44-35.22-38.86-37.61-37.491-39.305-35.481-41.79-31.676-43.031-26.072-43.031-20.562-43.031-16.21-41.868-13.019-39.54-9.781-37.213-7.576-33.643-6.405-28.832L-5.175-23.709C-2.698-14.196 .055-2.56 .062-2.535 .414-1.241 .319-.595 0 0" fill="#1f2e60" fill-rule="evenodd"/>
<path transform="matrix(1,0,0,-1,106.6582,136.3823)" d="M0 0C-.051-.317-.129-.667-.231-1.052-.845-3.208-2.055-4.82-3.831-5.861-5.545-6.863-7.885-7.372-10.791-7.372H-22.479L-18.805 5.798H-9.182C-6.098 5.798-3.885 5.463-2.42 4.774-.782 4.004 .084 2.69 .084 .974 .084 .669 .056 .342 0 0M11.848-.713C12.042-.021 12.191 .663 12.29 1.323 12.385 1.975 12.434 2.585 12.434 3.135 12.434 5.959 11.293 7.997 8.945 9.453 6.484 10.979 2.82 11.753-1.945 11.753H-26.938L-38.267-28.867-33.35-28.871C-32.771-28.871-30.766-28.79-29.291-27.752-27.47-26.472-27.022-24.244-27.018-24.223L-24.059-13.5H-18.585L-6.344-13.334C-2.304-12.943 1.313-11.813 4.419-9.934 8.274-7.606 10.773-4.503 11.848-.713" fill="#1f2e60" fill-rule="evenodd"/>
<path transform="matrix(1,0,0,-1,104.5977,161.5342)" d="M0 0C-.006 .024-2.503 8.438-5.176 17.442L-14.845 16.134C-11.662 5.298-9.337-2.405-8.953-3.692-8.953-3.692-2.316-3.718-2.07-3.719-.689-3.72-.308-2.98-.064-2.535 .255-1.94 .351-1.294 0 0" fill="#1f2e60" fill-rule="evenodd"/>
</g>
</g>
</svg>
